<svg xmlns="http://www.w3.org/2000/svg" xmlns:xlink="http://www.w3.org/1999/xlink" width="321" zoomAndPan="magnify" viewBox="0 0 240.75 141.750002" height="189" preserveAspectRatio="xMidYMid meet" version="1.0"><defs><g><g id="id1"/><g id="id2"/></g><clipPath id="id3"><path d="M 0.0859375 0 L 240.414062 0 L 240.414062 141.5 L 0.0859375 141.5 Z M 0.0859375 0 " clip-rule="nonzero"/></clipPath><clipPath id="id4"><path d="M 183 98 L 240.414062 98 L 240.414062 141.5 L 183 141.5 Z M 183 98 " clip-rule="nonzero"/></clipPath><clipPath id="id5"><path d="M 182.484375 79.886719 L 240.414062 79.886719 L 240.414062 110 L 182.484375 110 Z M 182.484375 79.886719 " clip-rule="nonzero"/></clipPath><clipPath id="id6"><path d="M 16.691406 125.539062 L 23.4375 125.539062 L 23.4375 132.285156 L 16.691406 132.285156 Z M 16.691406 125.539062 " clip-rule="nonzero"/></clipPath></defs><g clip-path="url(#id3)"><path fill="rgb(100%, 100%, 100%)" d="M 0.0859375 0 L 240.664062 0 L 240.664062 148.390625 L 0.0859375 148.390625 Z M 0.0859375 0 " fill-opacity="1" fill-rule="nonzero"/><path fill="rgb(0.389099%, 14.118958%, 32.159424%)" d="M 0.0859375 0 L 240.664062 0 L 240.664062 141.648438 L 0.0859375 141.648438 Z M 0.0859375 0 " fill-opacity="1" fill-rule="nonzero"/><path fill="rgb(100%, 100%, 100%)" d="M 0.0859375 0 L 240.664062 0 L 240.664062 141.648438 L 0.0859375 141.648438 Z M 0.0859375 0 " fill-opacity="1" fill-rule="nonzero"/><path fill="rgb(0.389099%, 14.118958%, 32.159424%)" d="M 0.0859375 0 L 240.664062 0 L 240.664062 141.648438 L 0.0859375 141.648438 Z M 0.0859375 0 " fill-opacity="1" fill-rule="nonzero"/></g><g clip-path="url(#id4)"><path fill="rgb(98.039246%, 63.529968%, 11.369324%)" d="M 246.976562 183.230469 L 246.976562 166.550781 L 227.355469 178.039062 L 219.121094 182.863281 L 219.121094 182.894531 L 210.832031 178.039062 L 191.453125 166.695312 L 183.25 161.894531 L 183.25 119.101562 L 191.453125 114.300781 L 210.367188 103.226562 L 219.121094 98.101562 L 219.121094 98.292969 L 227.542969 103.226562 L 246.972656 114.601562 L 255.179688 119.40625 L 255.179688 183.230469 Z M 246.976562 125.109375 L 219.121094 108.796875 L 219.121094 108.609375 L 191.453125 124.804688 L 191.453125 156.570312 L 219.117188 172.769531 L 219.117188 172.742188 L 246.972656 156.429688 L 246.972656 125.109375 Z M 246.976562 125.109375 " fill-opacity="1" fill-rule="nonzero"/></g><g clip-path="url(#id5)"><path fill="rgb(98.039246%, 63.529968%, 11.369324%)" d="M 236.191406 98.164062 L 227.21875 92.910156 L 219.117188 88.167969 L 218.574219 87.847656 L 218.355469 87.976562 L 209.925781 92.910156 L 200.957031 98.164062 L 190.691406 104.175781 L 182.484375 108.980469 L 182.484375 100.957031 L 190.691406 96.152344 L 194.105469 94.152344 L 203.078125 88.898438 L 211.722656 83.835938 L 218.355469 79.953125 L 218.574219 79.824219 L 219.117188 80.144531 L 225.425781 83.835938 L 234.066406 88.898438 L 243.039062 94.152344 L 246.976562 96.457031 L 255.179688 101.261719 L 255.179688 109.285156 L 246.976562 104.480469 Z M 236.191406 98.164062 " fill-opacity="1" fill-rule="nonzero"/></g><g fill="rgb(98.039246%, 63.529968%, 11.369324%)" fill-opacity="1"><g transform="translate(14.250112, 39.948011)"><g><path d="M 1.734375 -17.375 L 6.65625 -17.375 L 6.65625 -3.890625 L 14.9375 -3.890625 L 14.9375 0 L 1.734375 0 Z M 1.734375 -17.375 "/></g></g></g><g fill="rgb(98.039246%, 63.529968%, 11.369324%)" fill-opacity="1"><g transform="translate(29.385486, 39.948011)"><g><path d="M 10.5 0.34375 C 8.65625 0.34375 7 -0.0390625 5.53125 -0.8125 C 4.070312 -1.59375 2.925781 -2.671875 2.09375 -4.046875 C 1.257812 -5.421875 0.84375 -6.96875 0.84375 -8.6875 C 0.84375 -10.40625 1.257812 -11.953125 2.09375 -13.328125 C 2.925781 -14.703125 4.070312 -15.773438 5.53125 -16.546875 C 7 -17.328125 8.65625 -17.71875 10.5 -17.71875 C 12.332031 -17.71875 13.976562 -17.328125 15.4375 -16.546875 C 16.90625 -15.773438 18.054688 -14.703125 18.890625 -13.328125 C 19.722656 -11.953125 20.140625 -10.40625 20.140625 -8.6875 C 20.140625 -6.96875 19.722656 -5.421875 18.890625 -4.046875 C 18.054688 -2.671875 16.90625 -1.59375 15.4375 -0.8125 C 13.976562 -0.0390625 12.332031 0.34375 10.5 0.34375 Z M 10.5 -3.71875 C 11.375 -3.71875 12.164062 -3.925781 12.875 -4.34375 C 13.582031 -4.757812 14.144531 -5.34375 14.5625 -6.09375 C 14.976562 -6.84375 15.1875 -7.707031 15.1875 -8.6875 C 15.1875 -9.65625 14.976562 -10.515625 14.5625 -11.265625 C 14.144531 -12.023438 13.582031 -12.609375 12.875 -13.015625 C 12.164062 -13.429688 11.375 -13.640625 10.5 -13.640625 C 9.625 -13.640625 8.828125 -13.429688 8.109375 -13.015625 C 7.398438 -12.609375 6.835938 -12.023438 6.421875 -11.265625 C 6.015625 -10.515625 5.8125 -9.65625 5.8125 -8.6875 C 5.8125 -7.707031 6.015625 -6.84375 6.421875 -6.09375 C 6.835938 -5.34375 7.398438 -4.757812 8.109375 -4.34375 C 8.828125 -3.925781 9.625 -3.71875 10.5 -3.71875 Z M 10.5 -3.71875 "/></g></g></g><g fill="rgb(98.039246%, 63.529968%, 11.369324%)" fill-opacity="1"><g transform="translate(50.376515, 39.948011)"><g><path d="M 11.046875 -6.234375 L 11.046875 0 L 6.125 0 L 6.125 -6.296875 L -0.5 -17.375 L 4.6875 -17.375 L 8.8125 -10.46875 L 12.921875 -17.375 L 17.6875 -17.375 Z M 11.046875 -6.234375 "/></g></g></g><g fill="rgb(98.039246%, 63.529968%, 11.369324%)" fill-opacity="1"><g transform="translate(67.571303, 39.948011)"><g><path d="M 13.375 -3.375 L 6.03125 -3.375 L 4.671875 0 L -0.34375 0 L 7.3125 -17.375 L 12.15625 -17.375 L 19.84375 0 L 14.734375 0 Z M 11.9375 -7 L 9.703125 -12.5625 L 7.46875 -7 Z M 11.9375 -7 "/></g></g></g><g fill="rgb(98.039246%, 63.529968%, 11.369324%)" fill-opacity="1"><g transform="translate(87.073609, 39.948011)"><g><path d="M 1.734375 -17.375 L 6.65625 -17.375 L 6.65625 -3.890625 L 14.9375 -3.890625 L 14.9375 0 L 1.734375 0 Z M 1.734375 -17.375 "/></g></g></g><g fill="rgb(98.039246%, 63.529968%, 11.369324%)" fill-opacity="1"><g transform="translate(102.208982, 39.948011)"><g><path d="M 5.4375 -13.46875 L 0.09375 -13.46875 L 0.09375 -17.375 L 15.65625 -17.375 L 15.65625 -13.46875 L 10.34375 -13.46875 L 10.34375 0 L 5.4375 0 Z M 5.4375 -13.46875 "/></g></g></g><g fill="rgb(98.039246%, 63.529968%, 11.369324%)" fill-opacity="1"><g transform="translate(117.96466, 39.948011)"><g><path d="M 11.046875 -6.234375 L 11.046875 0 L 6.125 0 L 6.125 -6.296875 L -0.5 -17.375 L 4.6875 -17.375 L 8.8125 -10.46875 L 12.921875 -17.375 L 17.6875 -17.375 Z M 11.046875 -6.234375 "/></g></g></g><g fill="rgb(100%, 100%, 100%)" fill-opacity="1"><g transform="translate(141.670361, 39.948011)"><g><path d="M 10.390625 0.34375 C 8.578125 0.34375 6.945312 -0.0351562 5.5 -0.796875 C 4.050781 -1.566406 2.910156 -2.640625 2.078125 -4.015625 C 1.253906 -5.390625 0.84375 -6.945312 0.84375 -8.6875 C 0.84375 -10.425781 1.253906 -11.976562 2.078125 -13.34375 C 2.910156 -14.71875 4.050781 -15.789062 5.5 -16.5625 C 6.945312 -17.332031 8.578125 -17.71875 10.390625 -17.71875 C 11.984375 -17.71875 13.414062 -17.4375 14.6875 -16.875 C 15.957031 -16.3125 17.015625 -15.5 17.859375 -14.4375 L 14.734375 -11.609375 C 13.609375 -12.960938 12.242188 -13.640625 10.640625 -13.640625 C 9.703125 -13.640625 8.863281 -13.429688 8.125 -13.015625 C 7.382812 -12.609375 6.8125 -12.023438 6.40625 -11.265625 C 6.007812 -10.515625 5.8125 -9.65625 5.8125 -8.6875 C 5.8125 -7.707031 6.007812 -6.84375 6.40625 -6.09375 C 6.8125 -5.34375 7.382812 -4.757812 8.125 -4.34375 C 8.863281 -3.925781 9.703125 -3.71875 10.640625 -3.71875 C 12.242188 -3.71875 13.609375 -4.394531 14.734375 -5.75 L 17.859375 -2.921875 C 17.015625 -1.867188 15.957031 -1.0625 14.6875 -0.5 C 13.414062 0.0625 11.984375 0.34375 10.390625 0.34375 Z M 10.390625 0.34375 "/></g></g></g><g fill="rgb(100%, 100%, 100%)" fill-opacity="1"><g transform="translate(159.981683, 39.948011)"><g><path d="M 13.375 -3.375 L 6.03125 -3.375 L 4.671875 0 L -0.34375 0 L 7.3125 -17.375 L 12.15625 -17.375 L 19.84375 0 L 14.734375 0 Z M 11.9375 -7 L 9.703125 -12.5625 L 7.46875 -7 Z M 11.9375 -7 "/></g></g></g><g fill="rgb(100%, 100%, 100%)" fill-opacity="1"><g transform="translate(179.483988, 39.948011)"><g><path d="M 9.328125 -4.609375 L 6.65625 -4.609375 L 6.65625 0 L 1.734375 0 L 1.734375 -17.375 L 9.671875 -17.375 C 11.242188 -17.375 12.609375 -17.113281 13.765625 -16.59375 C 14.921875 -16.070312 15.8125 -15.328125 16.4375 -14.359375 C 17.070312 -13.390625 17.390625 -12.25 17.390625 -10.9375 C 17.390625 -9.6875 17.09375 -8.59375 16.5 -7.65625 C 15.914062 -6.71875 15.082031 -5.984375 14 -5.453125 L 17.734375 0 L 12.484375 0 Z M 12.4375 -10.9375 C 12.4375 -11.75 12.175781 -12.378906 11.65625 -12.828125 C 11.144531 -13.273438 10.382812 -13.5 9.375 -13.5 L 6.65625 -13.5 L 6.65625 -8.40625 L 9.375 -8.40625 C 10.382812 -8.40625 11.144531 -8.625 11.65625 -9.0625 C 12.175781 -9.5 12.4375 -10.125 12.4375 -10.9375 Z M 12.4375 -10.9375 "/></g></g></g><g fill="rgb(100%, 100%, 100%)" fill-opacity="1"><g transform="translate(197.844935, 39.948011)"><g><path d="M 1.734375 -17.375 L 9.953125 -17.375 C 11.847656 -17.375 13.53125 -17.015625 15 -16.296875 C 16.476562 -15.585938 17.625 -14.578125 18.4375 -13.265625 C 19.25 -11.960938 19.65625 -10.4375 19.65625 -8.6875 C 19.65625 -6.925781 19.25 -5.394531 18.4375 -4.09375 C 17.625 -2.789062 16.476562 -1.78125 15 -1.0625 C 13.53125 -0.351562 11.847656 0 9.953125 0 L 1.734375 0 Z M 9.75 -3.921875 C 11.238281 -3.921875 12.429688 -4.34375 13.328125 -5.1875 C 14.234375 -6.03125 14.6875 -7.195312 14.6875 -8.6875 C 14.6875 -10.175781 14.234375 -11.34375 13.328125 -12.1875 C 12.429688 -13.03125 11.238281 -13.453125 9.75 -13.453125 L 6.65625 -13.453125 L 6.65625 -3.921875 Z M 9.75 -3.921875 "/></g></g></g><g fill="rgb(100%, 100%, 100%)" fill-opacity="1"><g transform="translate(26.161697, 131.558318)"><g><path d="M 1.140625 -0.5 L 2.796875 -0.5 L 2.796875 0 L 0.515625 0 L 0.515625 -4.734375 L 1.140625 -4.734375 Z M 1.140625 -0.5 "/></g></g></g><g fill="rgb(100%, 100%, 100%)" fill-opacity="1"><g transform="translate(29.09192, 131.558318)"><g><path d="M 2.140625 0.0625 C 1.796875 0.0625 1.476562 -0.015625 1.1875 -0.171875 C 0.90625 -0.328125 0.6875 -0.550781 0.53125 -0.84375 C 0.375 -1.132812 0.296875 -1.472656 0.296875 -1.859375 C 0.296875 -2.242188 0.375 -2.582031 0.53125 -2.875 C 0.695312 -3.164062 0.921875 -3.390625 1.203125 -3.546875 C 1.492188 -3.703125 1.816406 -3.78125 2.171875 -3.78125 C 2.523438 -3.78125 2.84375 -3.703125 3.125 -3.546875 C 3.40625 -3.390625 3.628906 -3.164062 3.796875 -2.875 C 3.960938 -2.582031 4.046875 -2.242188 4.046875 -1.859375 C 4.046875 -1.472656 3.960938 -1.132812 3.796875 -0.84375 C 3.628906 -0.550781 3.398438 -0.328125 3.109375 -0.171875 C 2.816406 -0.015625 2.492188 0.0625 2.140625 0.0625 Z M 2.140625 -0.484375 C 2.359375 -0.484375 2.566406 -0.535156 2.765625 -0.640625 C 2.960938 -0.742188 3.117188 -0.898438 3.234375 -1.109375 C 3.359375 -1.316406 3.421875 -1.566406 3.421875 -1.859375 C 3.421875 -2.160156 3.359375 -2.414062 3.234375 -2.625 C 3.117188 -2.832031 2.96875 -2.984375 2.78125 -3.078125 C 2.59375 -3.179688 2.382812 -3.234375 2.15625 -3.234375 C 1.9375 -3.234375 1.734375 -3.179688 1.546875 -3.078125 C 1.359375 -2.984375 1.207031 -2.832031 1.09375 -2.625 C 0.976562 -2.414062 0.921875 -2.160156 0.921875 -1.859375 C 0.921875 -1.554688 0.972656 -1.300781 1.078125 -1.09375 C 1.191406 -0.882812 1.34375 -0.726562 1.53125 -0.625 C 1.71875 -0.53125 1.921875 -0.484375 2.140625 -0.484375 Z M 2.140625 -0.484375 "/></g></g></g><g fill="rgb(100%, 100%, 100%)" fill-opacity="1"><g transform="translate(33.432991, 131.558318)"><g><path d="M 3.71875 -3.71875 L 1.484375 1.75 L 0.84375 1.75 L 1.578125 -0.046875 L 0.078125 -3.71875 L 0.765625 -3.71875 L 1.9375 -0.703125 L 3.078125 -3.71875 Z M 3.71875 -3.71875 "/></g></g></g><g fill="rgb(100%, 100%, 100%)" fill-opacity="1"><g transform="translate(37.251774, 131.558318)"><g><path d="M 0.296875 -1.875 C 0.296875 -2.25 0.367188 -2.578125 0.515625 -2.859375 C 0.671875 -3.148438 0.882812 -3.375 1.15625 -3.53125 C 1.425781 -3.695312 1.726562 -3.78125 2.0625 -3.78125 C 2.382812 -3.78125 2.664062 -3.707031 2.90625 -3.5625 C 3.144531 -3.425781 3.320312 -3.25 3.4375 -3.03125 L 3.4375 -3.71875 L 4.0625 -3.71875 L 4.0625 0 L 3.4375 0 L 3.4375 -0.6875 C 3.3125 -0.46875 3.128906 -0.285156 2.890625 -0.140625 C 2.648438 -0.00390625 2.367188 0.0625 2.046875 0.0625 C 1.710938 0.0625 1.410156 -0.015625 1.140625 -0.171875 C 0.878906 -0.335938 0.671875 -0.566406 0.515625 -0.859375 C 0.367188 -1.160156 0.296875 -1.5 0.296875 -1.875 Z M 3.4375 -1.859375 C 3.4375 -2.140625 3.378906 -2.382812 3.265625 -2.59375 C 3.148438 -2.800781 2.992188 -2.957031 2.796875 -3.0625 C 2.609375 -3.175781 2.398438 -3.234375 2.171875 -3.234375 C 1.941406 -3.234375 1.734375 -3.179688 1.546875 -3.078125 C 1.359375 -2.972656 1.207031 -2.816406 1.09375 -2.609375 C 0.976562 -2.398438 0.921875 -2.15625 0.921875 -1.875 C 0.921875 -1.582031 0.976562 -1.332031 1.09375 -1.125 C 1.207031 -0.914062 1.359375 -0.753906 1.546875 -0.640625 C 1.734375 -0.535156 1.941406 -0.484375 2.171875 -0.484375 C 2.398438 -0.484375 2.609375 -0.535156 2.796875 -0.640625 C 2.992188 -0.753906 3.148438 -0.914062 3.265625 -1.125 C 3.378906 -1.332031 3.4375 -1.578125 3.4375 -1.859375 Z M 3.4375 -1.859375 "/></g></g></g><g fill="rgb(100%, 100%, 100%)" fill-opacity="1"><g transform="translate(41.837032, 131.558318)"><g><path d="M 1.28125 -3.203125 L 1.28125 -1.015625 C 1.28125 -0.835938 1.316406 -0.707031 1.390625 -0.625 C 1.460938 -0.550781 1.597656 -0.515625 1.796875 -0.515625 L 2.25 -0.515625 L 2.25 0 L 1.6875 0 C 1.34375 0 1.082031 -0.078125 0.90625 -0.234375 C 0.738281 -0.390625 0.65625 -0.648438 0.65625 -1.015625 L 0.65625 -3.203125 L 0.171875 -3.203125 L 0.171875 -3.71875 L 0.65625 -3.71875 L 0.65625 -4.65625 L 1.28125 -4.65625 L 1.28125 -3.71875 L 2.25 -3.71875 L 2.25 -3.203125 Z M 1.28125 -3.203125 "/></g></g></g><g fill="rgb(100%, 100%, 100%)" fill-opacity="1"><g transform="translate(44.306014, 131.558318)"><g><path d="M 3.71875 -3.71875 L 1.484375 1.75 L 0.84375 1.75 L 1.578125 -0.046875 L 0.078125 -3.71875 L 0.765625 -3.71875 L 1.9375 -0.703125 L 3.078125 -3.71875 Z M 3.71875 -3.71875 "/></g></g></g><g fill="rgb(100%, 100%, 100%)" fill-opacity="1"><g transform="translate(48.124797, 131.558318)"><g><path d="M 0.296875 -1.859375 C 0.296875 -2.242188 0.367188 -2.578125 0.515625 -2.859375 C 0.671875 -3.148438 0.882812 -3.375 1.15625 -3.53125 C 1.4375 -3.695312 1.753906 -3.78125 2.109375 -3.78125 C 2.554688 -3.78125 2.925781 -3.664062 3.21875 -3.4375 C 3.519531 -3.21875 3.71875 -2.910156 3.8125 -2.515625 L 3.15625 -2.515625 C 3.09375 -2.742188 2.96875 -2.921875 2.78125 -3.046875 C 2.601562 -3.179688 2.378906 -3.25 2.109375 -3.25 C 1.753906 -3.25 1.46875 -3.128906 1.25 -2.890625 C 1.03125 -2.648438 0.921875 -2.304688 0.921875 -1.859375 C 0.921875 -1.410156 1.03125 -1.066406 1.25 -0.828125 C 1.46875 -0.585938 1.753906 -0.46875 2.109375 -0.46875 C 2.378906 -0.46875 2.601562 -0.53125 2.78125 -0.65625 C 2.957031 -0.78125 3.082031 -0.957031 3.15625 -1.1875 L 3.8125 -1.1875 C 3.71875 -0.8125 3.519531 -0.507812 3.21875 -0.28125 C 2.925781 -0.0507812 2.554688 0.0625 2.109375 0.0625 C 1.753906 0.0625 1.4375 -0.015625 1.15625 -0.171875 C 0.882812 -0.328125 0.671875 -0.550781 0.515625 -0.84375 C 0.367188 -1.132812 0.296875 -1.472656 0.296875 -1.859375 Z M 0.296875 -1.859375 "/></g></g></g><g fill="rgb(100%, 100%, 100%)" fill-opacity="1"><g transform="translate(52.242036, 131.558318)"><g><path d="M 0.296875 -1.875 C 0.296875 -2.25 0.367188 -2.578125 0.515625 -2.859375 C 0.671875 -3.148438 0.882812 -3.375 1.15625 -3.53125 C 1.425781 -3.695312 1.726562 -3.78125 2.0625 -3.78125 C 2.382812 -3.78125 2.664062 -3.707031 2.90625 -3.5625 C 3.144531 -3.425781 3.320312 -3.25 3.4375 -3.03125 L 3.4375 -3.71875 L 4.0625 -3.71875 L 4.0625 0 L 3.4375 0 L 3.4375 -0.6875 C 3.3125 -0.46875 3.128906 -0.285156 2.890625 -0.140625 C 2.648438 -0.00390625 2.367188 0.0625 2.046875 0.0625 C 1.710938 0.0625 1.410156 -0.015625 1.140625 -0.171875 C 0.878906 -0.335938 0.671875 -0.566406 0.515625 -0.859375 C 0.367188 -1.160156 0.296875 -1.5 0.296875 -1.875 Z M 3.4375 -1.859375 C 3.4375 -2.140625 3.378906 -2.382812 3.265625 -2.59375 C 3.148438 -2.800781 2.992188 -2.957031 2.796875 -3.0625 C 2.609375 -3.175781 2.398438 -3.234375 2.171875 -3.234375 C 1.941406 -3.234375 1.734375 -3.179688 1.546875 -3.078125 C 1.359375 -2.972656 1.207031 -2.816406 1.09375 -2.609375 C 0.976562 -2.398438 0.921875 -2.15625 0.921875 -1.875 C 0.921875 -1.582031 0.976562 -1.332031 1.09375 -1.125 C 1.207031 -0.914062 1.359375 -0.753906 1.546875 -0.640625 C 1.734375 -0.535156 1.941406 -0.484375 2.171875 -0.484375 C 2.398438 -0.484375 2.609375 -0.535156 2.796875 -0.640625 C 2.992188 -0.753906 3.148438 -0.914062 3.265625 -1.125 C 3.378906 -1.332031 3.4375 -1.578125 3.4375 -1.859375 Z M 3.4375 -1.859375 "/></g></g></g><g fill="rgb(100%, 100%, 100%)" fill-opacity="1"><g transform="translate(56.827294, 131.558318)"><g><path d="M 1.140625 -3.109375 C 1.242188 -3.328125 1.394531 -3.492188 1.59375 -3.609375 C 1.800781 -3.722656 2.050781 -3.78125 2.34375 -3.78125 L 2.34375 -3.140625 L 2.171875 -3.140625 C 1.484375 -3.140625 1.140625 -2.765625 1.140625 -2.015625 L 1.140625 0 L 0.515625 0 L 0.515625 -3.71875 L 1.140625 -3.71875 Z M 1.140625 -3.109375 "/></g></g></g><g fill="rgb(100%, 100%, 100%)" fill-opacity="1"><g transform="translate(59.357323, 131.558318)"><g><path d="M 0.296875 -1.875 C 0.296875 -2.25 0.367188 -2.578125 0.515625 -2.859375 C 0.671875 -3.148438 0.882812 -3.375 1.15625 -3.53125 C 1.425781 -3.695312 1.726562 -3.78125 2.0625 -3.78125 C 2.351562 -3.78125 2.617188 -3.710938 2.859375 -3.578125 C 3.109375 -3.441406 3.300781 -3.265625 3.4375 -3.046875 L 3.4375 -5.015625 L 4.0625 -5.015625 L 4.0625 0 L 3.4375 0 L 3.4375 -0.703125 C 3.3125 -0.472656 3.128906 -0.285156 2.890625 -0.140625 C 2.648438 -0.00390625 2.375 0.0625 2.0625 0.0625 C 1.726562 0.0625 1.425781 -0.015625 1.15625 -0.171875 C 0.882812 -0.335938 0.671875 -0.566406 0.515625 -0.859375 C 0.367188 -1.160156 0.296875 -1.5 0.296875 -1.875 Z M 3.4375 -1.859375 C 3.4375 -2.140625 3.378906 -2.382812 3.265625 -2.59375 C 3.148438 -2.800781 2.992188 -2.957031 2.796875 -3.0625 C 2.609375 -3.175781 2.398438 -3.234375 2.171875 -3.234375 C 1.941406 -3.234375 1.734375 -3.179688 1.546875 -3.078125 C 1.359375 -2.972656 1.207031 -2.816406 1.09375 -2.609375 C 0.976562 -2.398438 0.921875 -2.15625 0.921875 -1.875 C 0.921875 -1.582031 0.976562 -1.332031 1.09375 -1.125 C 1.207031 -0.914062 1.359375 -0.753906 1.546875 -0.640625 C 1.734375 -0.535156 1.941406 -0.484375 2.171875 -0.484375 C 2.398438 -0.484375 2.609375 -0.535156 2.796875 -0.640625 C 2.992188 -0.753906 3.148438 -0.914062 3.265625 -1.125 C 3.378906 -1.332031 3.4375 -1.578125 3.4375 -1.859375 Z M 3.4375 -1.859375 "/></g></g></g><g fill="rgb(100%, 100%, 100%)" fill-opacity="1"><g transform="translate(63.942581, 131.558318)"><g><path d="M 0.71875 0.046875 C 0.601562 0.046875 0.503906 0.00390625 0.421875 -0.078125 C 0.335938 -0.160156 0.296875 -0.257812 0.296875 -0.375 C 0.296875 -0.5 0.335938 -0.597656 0.421875 -0.671875 C 0.503906 -0.753906 0.601562 -0.796875 0.71875 -0.796875 C 0.832031 -0.796875 0.925781 -0.753906 1 -0.671875 C 1.082031 -0.597656 1.125 -0.5 1.125 -0.375 C 1.125 -0.257812 1.082031 -0.160156 1 -0.078125 C 0.925781 0.00390625 0.832031 0.046875 0.71875 0.046875 Z M 0.71875 0.046875 "/></g></g></g><g fill="rgb(100%, 100%, 100%)" fill-opacity="1"><g transform="translate(65.366996, 131.558318)"><g><path d="M 0.296875 -1.859375 C 0.296875 -2.242188 0.367188 -2.578125 0.515625 -2.859375 C 0.671875 -3.148438 0.882812 -3.375 1.15625 -3.53125 C 1.4375 -3.695312 1.753906 -3.78125 2.109375 -3.78125 C 2.554688 -3.78125 2.925781 -3.664062 3.21875 -3.4375 C 3.519531 -3.21875 3.71875 -2.910156 3.8125 -2.515625 L 3.15625 -2.515625 C 3.09375 -2.742188 2.96875 -2.921875 2.78125 -3.046875 C 2.601562 -3.179688 2.378906 -3.25 2.109375 -3.25 C 1.753906 -3.25 1.46875 -3.128906 1.25 -2.890625 C 1.03125 -2.648438 0.921875 -2.304688 0.921875 -1.859375 C 0.921875 -1.410156 1.03125 -1.066406 1.25 -0.828125 C 1.46875 -0.585938 1.753906 -0.46875 2.109375 -0.46875 C 2.378906 -0.46875 2.601562 -0.53125 2.78125 -0.65625 C 2.957031 -0.78125 3.082031 -0.957031 3.15625 -1.1875 L 3.8125 -1.1875 C 3.71875 -0.8125 3.519531 -0.507812 3.21875 -0.28125 C 2.925781 -0.0507812 2.554688 0.0625 2.109375 0.0625 C 1.753906 0.0625 1.4375 -0.015625 1.15625 -0.171875 C 0.882812 -0.328125 0.671875 -0.550781 0.515625 -0.84375 C 0.367188 -1.132812 0.296875 -1.472656 0.296875 -1.859375 Z M 0.296875 -1.859375 "/></g></g></g><g fill="rgb(100%, 100%, 100%)" fill-opacity="1"><g transform="translate(69.484234, 131.558318)"><g><path d="M 2.140625 0.0625 C 1.796875 0.0625 1.476562 -0.015625 1.1875 -0.171875 C 0.90625 -0.328125 0.6875 -0.550781 0.53125 -0.84375 C 0.375 -1.132812 0.296875 -1.472656 0.296875 -1.859375 C 0.296875 -2.242188 0.375 -2.582031 0.53125 -2.875 C 0.695312 -3.164062 0.921875 -3.390625 1.203125 -3.546875 C 1.492188 -3.703125 1.816406 -3.78125 2.171875 -3.78125 C 2.523438 -3.78125 2.84375 -3.703125 3.125 -3.546875 C 3.40625 -3.390625 3.628906 -3.164062 3.796875 -2.875 C 3.960938 -2.582031 4.046875 -2.242188 4.046875 -1.859375 C 4.046875 -1.472656 3.960938 -1.132812 3.796875 -0.84375 C 3.628906 -0.550781 3.398438 -0.328125 3.109375 -0.171875 C 2.816406 -0.015625 2.492188 0.0625 2.140625 0.0625 Z M 2.140625 -0.484375 C 2.359375 -0.484375 2.566406 -0.535156 2.765625 -0.640625 C 2.960938 -0.742188 3.117188 -0.898438 3.234375 -1.109375 C 3.359375 -1.316406 3.421875 -1.566406 3.421875 -1.859375 C 3.421875 -2.160156 3.359375 -2.414062 3.234375 -2.625 C 3.117188 -2.832031 2.96875 -2.984375 2.78125 -3.078125 C 2.59375 -3.179688 2.382812 -3.234375 2.15625 -3.234375 C 1.9375 -3.234375 1.734375 -3.179688 1.546875 -3.078125 C 1.359375 -2.984375 1.207031 -2.832031 1.09375 -2.625 C 0.976562 -2.414062 0.921875 -2.160156 0.921875 -1.859375 C 0.921875 -1.554688 0.972656 -1.300781 1.078125 -1.09375 C 1.191406 -0.882812 1.34375 -0.726562 1.53125 -0.625 C 1.71875 -0.53125 1.921875 -0.484375 2.140625 -0.484375 Z M 2.140625 -0.484375 "/></g></g></g><g fill="rgb(100%, 100%, 100%)" fill-opacity="1"><g transform="translate(73.825305, 131.558318)"><g><path d="M 4.984375 -3.78125 C 5.273438 -3.78125 5.535156 -3.71875 5.765625 -3.59375 C 5.992188 -3.476562 6.171875 -3.300781 6.296875 -3.0625 C 6.429688 -2.820312 6.5 -2.53125 6.5 -2.1875 L 6.5 0 L 5.890625 0 L 5.890625 -2.109375 C 5.890625 -2.472656 5.796875 -2.753906 5.609375 -2.953125 C 5.429688 -3.148438 5.1875 -3.25 4.875 -3.25 C 4.550781 -3.25 4.289062 -3.144531 4.09375 -2.9375 C 3.90625 -2.726562 3.8125 -2.429688 3.8125 -2.046875 L 3.8125 0 L 3.203125 0 L 3.203125 -2.109375 C 3.203125 -2.472656 3.109375 -2.753906 2.921875 -2.953125 C 2.742188 -3.148438 2.5 -3.25 2.1875 -3.25 C 1.863281 -3.25 1.609375 -3.144531 1.421875 -2.9375 C 1.234375 -2.726562 1.140625 -2.429688 1.140625 -2.046875 L 1.140625 0 L 0.515625 0 L 0.515625 -3.71875 L 1.140625 -3.71875 L 1.140625 -3.1875 C 1.265625 -3.375 1.425781 -3.519531 1.625 -3.625 C 1.832031 -3.726562 2.0625 -3.78125 2.3125 -3.78125 C 2.625 -3.78125 2.898438 -3.707031 3.140625 -3.5625 C 3.378906 -3.425781 3.554688 -3.222656 3.671875 -2.953125 C 3.773438 -3.210938 3.945312 -3.414062 4.1875 -3.5625 C 4.425781 -3.707031 4.691406 -3.78125 4.984375 -3.78125 Z M 4.984375 -3.78125 "/></g></g></g><g fill="rgb(100%, 100%, 100%)" fill-opacity="1"><g transform="translate(12.853217, 65.46603)"><g><path d="M 3.929688 0.0898438 C 5.878906 0.0898438 7.4375 -1.480469 7.4375 -3.417969 C 7.4375 -5.355469 5.878906 -6.925781 3.929688 -6.925781 C 1.992188 -6.925781 0.421875 -5.355469 0.421875 -3.417969 C 0.421875 -1.480469 1.992188 0.0898438 3.929688 0.0898438 Z M 3.929688 -1.378906 C 2.78125 -1.378906 1.902344 -2.265625 1.902344 -3.417969 C 1.902344 -4.566406 2.78125 -5.457031 3.929688 -5.457031 C 5.09375 -5.457031 5.96875 -4.566406 5.96875 -3.417969 C 5.96875 -2.265625 5.09375 -1.378906 3.929688 -1.378906 Z M 3.929688 -1.378906 "/></g></g></g><g fill="rgb(100%, 100%, 100%)" fill-opacity="1"><g transform="translate(21.33353, 65.46603)"><g><path d="M 3.429688 -4.648438 C 2.90625 -4.648438 2.472656 -4.464844 2.128906 -4.15625 L 2.128906 -7.804688 L 0.671875 -7.804688 L 0.671875 0 L 2.128906 0.0117188 L 2.128906 -0.398438 C 2.472656 -0.0898438 2.90625 0.0898438 3.429688 0.0898438 C 4.683594 0.0898438 5.671875 -0.957031 5.671875 -2.277344 C 5.671875 -3.601562 4.683594 -4.648438 3.429688 -4.648438 Z M 3.144531 -1.195312 C 2.539062 -1.195312 2.0625 -1.675781 2.0625 -2.277344 C 2.0625 -2.882812 2.539062 -3.359375 3.144531 -3.359375 C 3.746094 -3.359375 4.226562 -2.882812 4.226562 -2.277344 C 4.226562 -1.675781 3.746094 -1.195312 3.144531 -1.195312 Z M 3.144531 -1.195312 "/></g></g></g><g fill="rgb(100%, 100%, 100%)" fill-opacity="1"><g transform="translate(27.968938, 65.46603)"><g><path d="M 3.417969 -3.429688 L 3.417969 -4.558594 L 2.335938 -4.558594 L 2.335938 -6.3125 L 0.886719 -6.3125 L 0.886719 -4.558594 L 0.125 -4.558594 L 0.125 -3.429688 L 0.886719 -3.429688 L 0.886719 -1.628906 C 0.886719 -0.660156 1.707031 0.0898438 2.675781 0.0898438 C 2.984375 0.0898438 3.292969 0.0234375 3.40625 -0.0585938 L 3.40625 -1.183594 L 2.859375 -1.183594 C 2.550781 -1.183594 2.335938 -1.425781 2.335938 -1.800781 L 2.335938 -3.429688 Z M 3.417969 -3.429688 "/></g></g></g><g fill="rgb(100%, 100%, 100%)" fill-opacity="1"><g transform="translate(32.2242, 65.46603)"><g><path d="M 5.308594 -2.289062 C 5.308594 -3.714844 4.328125 -4.660156 2.859375 -4.660156 C 1.390625 -4.660156 0.351562 -3.703125 0.351562 -2.277344 C 0.351562 -0.855469 1.378906 0.0898438 2.90625 0.0898438 C 4.167969 0.0898438 5.011719 -0.582031 5.238281 -1.570312 L 3.839844 -1.570312 C 3.714844 -1.207031 3.382812 -0.992188 2.882812 -0.992188 C 2.222656 -0.992188 1.878906 -1.390625 1.824219 -2.039062 L 5.308594 -2.039062 Z M 2.882812 -3.542969 C 3.371094 -3.542969 3.65625 -3.316406 3.804688 -2.917969 L 1.914062 -2.917969 C 2.0625 -3.304688 2.371094 -3.542969 2.882812 -3.542969 Z M 2.882812 -3.542969 "/></g></g></g><g fill="rgb(100%, 100%, 100%)" fill-opacity="1"><g transform="translate(38.483805, 65.46603)"><g><path d="M 3.429688 -4.648438 C 2.90625 -4.648438 2.449219 -4.398438 2.128906 -4 L 2.128906 -4.558594 L 0.671875 -4.558594 L 0.671875 0 L 2.128906 0 L 2.128906 -2.644531 C 2.128906 -3.054688 2.472656 -3.359375 2.894531 -3.359375 C 3.316406 -3.359375 3.609375 -3.054688 3.609375 -2.644531 L 3.609375 0 L 5.058594 0 L 5.058594 -2.882812 C 5.058594 -3.882812 4.328125 -4.648438 3.429688 -4.648438 Z M 3.429688 -4.648438 "/></g></g></g><g fill="rgb(100%, 100%, 100%)" fill-opacity="1"><g transform="translate(44.732021, 65.46603)"><g><path d="M 5.308594 -2.289062 C 5.308594 -3.714844 4.328125 -4.660156 2.859375 -4.660156 C 1.390625 -4.660156 0.351562 -3.703125 0.351562 -2.277344 C 0.351562 -0.855469 1.378906 0.0898438 2.90625 0.0898438 C 4.167969 0.0898438 5.011719 -0.582031 5.238281 -1.570312 L 3.839844 -1.570312 C 3.714844 -1.207031 3.382812 -0.992188 2.882812 -0.992188 C 2.222656 -0.992188 1.878906 -1.390625 1.824219 -2.039062 L 5.308594 -2.039062 Z M 2.882812 -3.542969 C 3.371094 -3.542969 3.65625 -3.316406 3.804688 -2.917969 L 1.914062 -2.917969 C 2.0625 -3.304688 2.371094 -3.542969 2.882812 -3.542969 Z M 2.882812 -3.542969 "/></g></g></g><g fill="rgb(100%, 100%, 100%)" fill-opacity="1"><g transform="translate(50.991626, 65.46603)"><g><path d="M 4.292969 -4.558594 L 0.476562 -4.558594 L 0.476562 -3.347656 L 2.140625 -3.347656 L 0.238281 0 L 4.226562 0 L 4.226562 -1.207031 L 2.382812 -1.207031 Z M 4.292969 -4.558594 "/></g></g></g><g fill="rgb(100%, 100%, 100%)" fill-opacity="1"><g transform="translate(56.055458, 65.46603)"><g/></g></g><g fill="rgb(100%, 100%, 100%)" fill-opacity="1"><g transform="translate(59.399665, 65.46603)"><g><path d="M 2.710938 0.0898438 C 4.089844 0.0898438 4.851562 -0.625 4.851562 -1.742188 L 4.851562 -4.558594 L 3.40625 -4.558594 L 3.40625 -1.9375 C 3.40625 -1.503906 3.109375 -1.195312 2.710938 -1.195312 C 2.324219 -1.195312 2.027344 -1.503906 2.027344 -1.9375 L 2.027344 -4.558594 L 0.570312 -4.558594 L 0.570312 -1.742188 C 0.570312 -0.625 1.332031 0.0898438 2.710938 0.0898438 Z M 2.710938 0.0898438 "/></g></g></g><g fill="rgb(100%, 100%, 100%)" fill-opacity="1"><g transform="translate(65.44288, 65.46603)"><g><path d="M 3.429688 -4.648438 C 2.90625 -4.648438 2.449219 -4.398438 2.128906 -4 L 2.128906 -4.558594 L 0.671875 -4.558594 L 0.671875 0 L 2.128906 0 L 2.128906 -2.644531 C 2.128906 -3.054688 2.472656 -3.359375 2.894531 -3.359375 C 3.316406 -3.359375 3.609375 -3.054688 3.609375 -2.644531 L 3.609375 0 L 5.058594 0 L 5.058594 -2.882812 C 5.058594 -3.882812 4.328125 -4.648438 3.429688 -4.648438 Z M 3.429688 -4.648438 "/></g></g></g><g fill="rgb(100%, 100%, 100%)" fill-opacity="1"><g transform="translate(71.691095, 65.46603)"><g><path d="M 5.308594 -2.289062 C 5.308594 -3.714844 4.328125 -4.660156 2.859375 -4.660156 C 1.390625 -4.660156 0.351562 -3.703125 0.351562 -2.277344 C 0.351562 -0.855469 1.378906 0.0898438 2.90625 0.0898438 C 4.167969 0.0898438 5.011719 -0.582031 5.238281 -1.570312 L 3.839844 -1.570312 C 3.714844 -1.207031 3.382812 -0.992188 2.882812 -0.992188 C 2.222656 -0.992188 1.878906 -1.390625 1.824219 -2.039062 L 5.308594 -2.039062 Z M 2.882812 -3.542969 C 3.371094 -3.542969 3.65625 -3.316406 3.804688 -2.917969 L 1.914062 -2.917969 C 2.0625 -3.304688 2.371094 -3.542969 2.882812 -3.542969 Z M 2.882812 -3.542969 "/></g></g></g><g fill="rgb(100%, 100%, 100%)" fill-opacity="1"><g transform="translate(77.950701, 65.46603)"><g/></g></g><g fill="rgb(100%, 100%, 100%)" fill-opacity="1"><g transform="translate(81.294908, 65.46603)"><g><path d="M 3.40625 -4.648438 C 2.871094 -4.648438 2.425781 -4.375 2.128906 -3.929688 L 2.128906 -4.558594 L 0.671875 -4.558594 L 0.671875 0 L 2.128906 0 L 2.128906 -2.175781 C 2.128906 -2.925781 2.644531 -3.359375 3.359375 -3.359375 C 3.53125 -3.359375 3.679688 -3.335938 3.78125 -3.316406 L 3.78125 -4.601562 C 3.679688 -4.636719 3.542969 -4.648438 3.40625 -4.648438 Z M 3.40625 -4.648438 "/></g></g></g><g fill="rgb(100%, 100%, 100%)" fill-opacity="1"><g transform="translate(85.664049, 65.46603)"><g><path d="M 4.726562 -6.847656 L 3.347656 -6.847656 L 2.347656 -5.148438 L 3.304688 -5.148438 Z M 5.308594 -2.289062 C 5.308594 -3.714844 4.328125 -4.660156 2.859375 -4.660156 C 1.390625 -4.660156 0.351562 -3.703125 0.351562 -2.277344 C 0.351562 -0.855469 1.378906 0.0898438 2.90625 0.0898438 C 4.167969 0.0898438 5.011719 -0.582031 5.238281 -1.570312 L 3.839844 -1.570312 C 3.714844 -1.207031 3.382812 -0.992188 2.882812 -0.992188 C 2.222656 -0.992188 1.878906 -1.390625 1.824219 -2.039062 L 5.308594 -2.039062 Z M 2.882812 -3.542969 C 3.371094 -3.542969 3.65625 -3.316406 3.804688 -2.917969 L 1.914062 -2.917969 C 2.0625 -3.304688 2.371094 -3.542969 2.882812 -3.542969 Z M 2.882812 -3.542969 "/></g></g></g><g fill="rgb(100%, 100%, 100%)" fill-opacity="1"><g transform="translate(91.923654, 65.46603)"><g><path d="M 3.90625 -7.804688 L 3.90625 -4.15625 C 3.566406 -4.464844 3.132812 -4.648438 2.609375 -4.648438 C 1.34375 -4.648438 0.351562 -3.601562 0.351562 -2.277344 C 0.351562 -0.957031 1.34375 0.0898438 2.609375 0.0898438 C 3.132812 0.0898438 3.566406 -0.0898438 3.90625 -0.398438 L 3.90625 0.0117188 L 5.355469 0 L 5.355469 -7.804688 Z M 2.894531 -1.195312 C 2.289062 -1.195312 1.8125 -1.675781 1.8125 -2.277344 C 1.8125 -2.882812 2.289062 -3.359375 2.894531 -3.359375 C 3.484375 -3.359375 3.976562 -2.882812 3.976562 -2.277344 C 3.976562 -1.675781 3.484375 -1.195312 2.894531 -1.195312 Z M 2.894531 -1.195312 "/></g></g></g><g fill="rgb(100%, 100%, 100%)" fill-opacity="1"><g transform="translate(98.559063, 65.46603)"><g><path d="M 2.710938 0.0898438 C 4.089844 0.0898438 4.851562 -0.625 4.851562 -1.742188 L 4.851562 -4.558594 L 3.40625 -4.558594 L 3.40625 -1.9375 C 3.40625 -1.503906 3.109375 -1.195312 2.710938 -1.195312 C 2.324219 -1.195312 2.027344 -1.503906 2.027344 -1.9375 L 2.027344 -4.558594 L 0.570312 -4.558594 L 0.570312 -1.742188 C 0.570312 -0.625 1.332031 0.0898438 2.710938 0.0898438 Z M 2.710938 0.0898438 "/></g></g></g><g fill="rgb(100%, 100%, 100%)" fill-opacity="1"><g transform="translate(104.602281, 65.46603)"><g><path d="M 2.894531 0.0898438 C 4.261719 0.0898438 5.195312 -0.707031 5.386719 -1.84375 L 3.882812 -1.84375 C 3.738281 -1.457031 3.359375 -1.207031 2.894531 -1.195312 C 2.265625 -1.207031 1.8125 -1.664062 1.8125 -2.277344 C 1.8125 -2.894531 2.265625 -3.347656 2.894531 -3.359375 C 3.359375 -3.347656 3.738281 -3.097656 3.882812 -2.710938 L 5.386719 -2.710938 C 5.195312 -3.851562 4.261719 -4.648438 2.894531 -4.648438 C 1.367188 -4.648438 0.351562 -3.644531 0.351562 -2.277344 C 0.351562 -0.910156 1.367188 0.0898438 2.894531 0.0898438 Z M 2.894531 0.0898438 "/></g></g></g><g fill="rgb(100%, 100%, 100%)" fill-opacity="1"><g transform="translate(110.86188, 65.46603)"><g><path d="M 3.417969 -3.429688 L 3.417969 -4.558594 L 2.335938 -4.558594 L 2.335938 -6.3125 L 0.886719 -6.3125 L 0.886719 -4.558594 L 0.125 -4.558594 L 0.125 -3.429688 L 0.886719 -3.429688 L 0.886719 -1.628906 C 0.886719 -0.660156 1.707031 0.0898438 2.675781 0.0898438 C 2.984375 0.0898438 3.292969 0.0234375 3.40625 -0.0585938 L 3.40625 -1.183594 L 2.859375 -1.183594 C 2.550781 -1.183594 2.335938 -1.425781 2.335938 -1.800781 L 2.335938 -3.429688 Z M 3.417969 -3.429688 "/></g></g></g><g fill="rgb(100%, 100%, 100%)" fill-opacity="1"><g transform="translate(115.117144, 65.46603)"><g><path d="M 1.425781 -5.320312 C 1.855469 -5.320312 2.222656 -5.683594 2.222656 -6.117188 C 2.222656 -6.5625 1.855469 -6.914062 1.425781 -6.914062 C 0.992188 -6.914062 0.625 -6.5625 0.625 -6.117188 C 0.625 -5.683594 0.992188 -5.320312 1.425781 -5.320312 Z M 0.695312 0 L 2.140625 0 L 2.140625 -4.558594 L 0.695312 -4.558594 Z M 0.695312 0 "/></g></g></g><g fill="rgb(100%, 100%, 100%)" fill-opacity="1"><g transform="translate(118.575228, 65.46603)"><g><path d="M 2.894531 0.0898438 C 4.421875 0.0898438 5.421875 -0.910156 5.421875 -2.277344 C 5.421875 -3.644531 4.421875 -4.648438 2.894531 -4.648438 C 1.367188 -4.648438 0.351562 -3.644531 0.351562 -2.277344 C 0.351562 -0.910156 1.367188 0.0898438 2.894531 0.0898438 Z M 2.894531 -1.195312 C 2.265625 -1.207031 1.8125 -1.664062 1.8125 -2.277344 C 1.8125 -2.894531 2.265625 -3.347656 2.894531 -3.359375 C 3.507812 -3.347656 3.976562 -2.894531 3.976562 -2.277344 C 3.976562 -1.664062 3.507812 -1.207031 2.894531 -1.195312 Z M 2.894531 -1.195312 "/></g></g></g><g fill="rgb(100%, 100%, 100%)" fill-opacity="1"><g transform="translate(124.971492, 65.46603)"><g><path d="M 3.429688 -4.648438 C 2.90625 -4.648438 2.449219 -4.398438 2.128906 -4 L 2.128906 -4.558594 L 0.671875 -4.558594 L 0.671875 0 L 2.128906 0 L 2.128906 -2.644531 C 2.128906 -3.054688 2.472656 -3.359375 2.894531 -3.359375 C 3.316406 -3.359375 3.609375 -3.054688 3.609375 -2.644531 L 3.609375 0 L 5.058594 0 L 5.058594 -2.882812 C 5.058594 -3.882812 4.328125 -4.648438 3.429688 -4.648438 Z M 3.429688 -4.648438 "/></g></g></g><g fill="rgb(100%, 100%, 100%)" fill-opacity="1"><g transform="translate(131.219707, 65.46603)"><g/></g></g><g fill="rgb(100%, 100%, 100%)" fill-opacity="1"><g transform="translate(134.563914, 65.46603)"><g><path d="M 5.308594 -2.289062 C 5.308594 -3.714844 4.328125 -4.660156 2.859375 -4.660156 C 1.390625 -4.660156 0.351562 -3.703125 0.351562 -2.277344 C 0.351562 -0.855469 1.378906 0.0898438 2.90625 0.0898438 C 4.167969 0.0898438 5.011719 -0.582031 5.238281 -1.570312 L 3.839844 -1.570312 C 3.714844 -1.207031 3.382812 -0.992188 2.882812 -0.992188 C 2.222656 -0.992188 1.878906 -1.390625 1.824219 -2.039062 L 5.308594 -2.039062 Z M 2.882812 -3.542969 C 3.371094 -3.542969 3.65625 -3.316406 3.804688 -2.917969 L 1.914062 -2.917969 C 2.0625 -3.304688 2.371094 -3.542969 2.882812 -3.542969 Z M 2.882812 -3.542969 "/></g></g></g><g fill="rgb(100%, 100%, 100%)" fill-opacity="1"><g transform="translate(140.82352, 65.46603)"><g><path d="M 3.417969 -3.429688 L 3.417969 -4.558594 L 2.335938 -4.558594 L 2.335938 -6.3125 L 0.886719 -6.3125 L 0.886719 -4.558594 L 0.125 -4.558594 L 0.125 -3.429688 L 0.886719 -3.429688 L 0.886719 -1.628906 C 0.886719 -0.660156 1.707031 0.0898438 2.675781 0.0898438 C 2.984375 0.0898438 3.292969 0.0234375 3.40625 -0.0585938 L 3.40625 -1.183594 L 2.859375 -1.183594 C 2.550781 -1.183594 2.335938 -1.425781 2.335938 -1.800781 L 2.335938 -3.429688 Z M 3.417969 -3.429688 "/></g></g></g><g fill="rgb(100%, 100%, 100%)" fill-opacity="1"><g transform="translate(145.073824, 65.46603)"><g/></g></g><g fill="rgb(100%, 100%, 100%)" fill-opacity="1"><g transform="translate(12.853217, 78.206799)"><g><path d="M 5.492188 -4.558594 L 4.03125 -4.558594 L 4.03125 -4.101562 C 3.65625 -4.441406 3.167969 -4.648438 2.609375 -4.648438 C 1.34375 -4.648438 0.351562 -3.609375 0.351562 -2.277344 C 0.351562 -0.957031 1.34375 0.0898438 2.609375 0.0898438 C 3.179688 0.0898438 3.679688 -0.125 4.054688 -0.476562 L 4.054688 0.125 C 4.054688 0.96875 3.589844 1.480469 2.847656 1.480469 C 2.324219 1.480469 1.925781 1.195312 1.753906 0.742188 L 0.421875 1.277344 C 0.796875 2.210938 1.652344 2.746094 2.847656 2.746094 C 4.511719 2.746094 5.503906 1.730469 5.503906 0.046875 Z M 2.972656 -1.195312 C 2.371094 -1.195312 1.890625 -1.675781 1.890625 -2.277344 C 1.890625 -2.882812 2.371094 -3.359375 2.972656 -3.359375 C 3.578125 -3.359375 4.066406 -2.882812 4.066406 -2.277344 C 4.066406 -1.675781 3.578125 -1.195312 2.972656 -1.195312 Z M 2.972656 -1.195312 "/></g></g></g><g fill="rgb(100%, 100%, 100%)" fill-opacity="1"><g transform="translate(19.648063, 78.206799)"><g><path d="M 5.753906 -1.183594 C 5.558594 -1.183594 5.355469 -1.253906 5.355469 -1.628906 L 5.355469 -4.558594 L 3.90625 -4.558594 L 3.90625 -4.15625 C 3.566406 -4.464844 3.132812 -4.648438 2.609375 -4.648438 C 1.34375 -4.648438 0.351562 -3.601562 0.351562 -2.277344 C 0.351562 -0.957031 1.34375 0.0898438 2.609375 0.0898438 C 3.269531 0.0898438 3.804688 -0.203125 4.167969 -0.683594 C 4.453125 -0.214844 4.957031 0.0898438 5.570312 0.0898438 C 5.71875 0.0898438 5.855469 0.046875 5.957031 0 L 5.957031 -1.183594 Z M 2.894531 -1.195312 C 2.289062 -1.195312 1.8125 -1.675781 1.8125 -2.277344 C 1.8125 -2.882812 2.289062 -3.359375 2.894531 -3.359375 C 3.484375 -3.359375 3.976562 -2.882812 3.976562 -2.277344 C 3.976562 -1.675781 3.484375 -1.195312 2.894531 -1.195312 Z M 2.894531 -1.195312 "/></g></g></g><g fill="rgb(100%, 100%, 100%)" fill-opacity="1"><g transform="translate(26.385971, 78.206799)"><g><path d="M 5.492188 -4.558594 L 4.03125 -4.558594 L 4.03125 -4.101562 C 3.65625 -4.441406 3.167969 -4.648438 2.609375 -4.648438 C 1.34375 -4.648438 0.351562 -3.609375 0.351562 -2.277344 C 0.351562 -0.957031 1.34375 0.0898438 2.609375 0.0898438 C 3.179688 0.0898438 3.679688 -0.125 4.054688 -0.476562 L 4.054688 0.125 C 4.054688 0.96875 3.589844 1.480469 2.847656 1.480469 C 2.324219 1.480469 1.925781 1.195312 1.753906 0.742188 L 0.421875 1.277344 C 0.796875 2.210938 1.652344 2.746094 2.847656 2.746094 C 4.511719 2.746094 5.503906 1.730469 5.503906 0.046875 Z M 2.972656 -1.195312 C 2.371094 -1.195312 1.890625 -1.675781 1.890625 -2.277344 C 1.890625 -2.882812 2.371094 -3.359375 2.972656 -3.359375 C 3.578125 -3.359375 4.066406 -2.882812 4.066406 -2.277344 C 4.066406 -1.675781 3.578125 -1.195312 2.972656 -1.195312 Z M 2.972656 -1.195312 "/></g></g></g><g fill="rgb(100%, 100%, 100%)" fill-opacity="1"><g transform="translate(33.180816, 78.206799)"><g><path d="M 3.429688 -4.648438 C 2.90625 -4.648438 2.449219 -4.398438 2.128906 -4 L 2.128906 -4.558594 L 0.671875 -4.558594 L 0.671875 0 L 2.128906 0 L 2.128906 -2.644531 C 2.128906 -3.054688 2.472656 -3.359375 2.894531 -3.359375 C 3.316406 -3.359375 3.609375 -3.054688 3.609375 -2.644531 L 3.609375 0 L 5.058594 0 L 5.058594 -2.882812 C 5.058594 -3.882812 4.328125 -4.648438 3.429688 -4.648438 Z M 3.429688 -4.648438 "/></g></g></g><g fill="rgb(100%, 100%, 100%)" fill-opacity="1"><g transform="translate(39.429032, 78.206799)"><g><path d="M 5.308594 -2.289062 C 5.308594 -3.714844 4.328125 -4.660156 2.859375 -4.660156 C 1.390625 -4.660156 0.351562 -3.703125 0.351562 -2.277344 C 0.351562 -0.855469 1.378906 0.0898438 2.90625 0.0898438 C 4.167969 0.0898438 5.011719 -0.582031 5.238281 -1.570312 L 3.839844 -1.570312 C 3.714844 -1.207031 3.382812 -0.992188 2.882812 -0.992188 C 2.222656 -0.992188 1.878906 -1.390625 1.824219 -2.039062 L 5.308594 -2.039062 Z M 2.882812 -3.542969 C 3.371094 -3.542969 3.65625 -3.316406 3.804688 -2.917969 L 1.914062 -2.917969 C 2.0625 -3.304688 2.371094 -3.542969 2.882812 -3.542969 Z M 2.882812 -3.542969 "/></g></g></g><g fill="rgb(100%, 100%, 100%)" fill-opacity="1"><g transform="translate(45.688637, 78.206799)"><g><path d="M 4.292969 -4.558594 L 0.476562 -4.558594 L 0.476562 -3.347656 L 2.140625 -3.347656 L 0.238281 0 L 4.226562 0 L 4.226562 -1.207031 L 2.382812 -1.207031 Z M 4.292969 -4.558594 "/></g></g></g><g fill="rgb(100%, 100%, 100%)" fill-opacity="1"><g transform="translate(50.752469, 78.206799)"><g/></g></g><g fill="rgb(100%, 100%, 100%)" fill-opacity="1"><g transform="translate(54.096676, 78.206799)"><g><path d="M 3.90625 -7.804688 L 3.90625 -4.15625 C 3.566406 -4.464844 3.132812 -4.648438 2.609375 -4.648438 C 1.34375 -4.648438 0.351562 -3.601562 0.351562 -2.277344 C 0.351562 -0.957031 1.34375 0.0898438 2.609375 0.0898438 C 3.132812 0.0898438 3.566406 -0.0898438 3.90625 -0.398438 L 3.90625 0.0117188 L 5.355469 0 L 5.355469 -7.804688 Z M 2.894531 -1.195312 C 2.289062 -1.195312 1.8125 -1.675781 1.8125 -2.277344 C 1.8125 -2.882812 2.289062 -3.359375 2.894531 -3.359375 C 3.484375 -3.359375 3.976562 -2.882812 3.976562 -2.277344 C 3.976562 -1.675781 3.484375 -1.195312 2.894531 -1.195312 Z M 2.894531 -1.195312 "/></g></g></g><g fill="rgb(100%, 100%, 100%)" fill-opacity="1"><g transform="translate(60.732085, 78.206799)"><g><path d="M 5.308594 -2.289062 C 5.308594 -3.714844 4.328125 -4.660156 2.859375 -4.660156 C 1.390625 -4.660156 0.351562 -3.703125 0.351562 -2.277344 C 0.351562 -0.855469 1.378906 0.0898438 2.90625 0.0898438 C 4.167969 0.0898438 5.011719 -0.582031 5.238281 -1.570312 L 3.839844 -1.570312 C 3.714844 -1.207031 3.382812 -0.992188 2.882812 -0.992188 C 2.222656 -0.992188 1.878906 -1.390625 1.824219 -2.039062 L 5.308594 -2.039062 Z M 2.882812 -3.542969 C 3.371094 -3.542969 3.65625 -3.316406 3.804688 -2.917969 L 1.914062 -2.917969 C 2.0625 -3.304688 2.371094 -3.542969 2.882812 -3.542969 Z M 2.882812 -3.542969 "/></g></g></g><g fill="rgb(100%, 100%, 100%)" fill-opacity="1"><g transform="translate(66.991688, 78.206799)"><g><path d="M 2.140625 0.0898438 C 3.167969 0.0898438 3.792969 -0.535156 3.792969 -1.390625 C 3.792969 -2.300781 3.042969 -2.664062 2.390625 -2.917969 C 2.0625 -3.054688 1.902344 -3.121094 1.902344 -3.292969 C 1.902344 -3.441406 2.015625 -3.554688 2.265625 -3.554688 C 2.5625 -3.554688 2.835938 -3.394531 2.972656 -3.222656 L 3.703125 -4.042969 C 3.359375 -4.386719 2.800781 -4.648438 2.164062 -4.648438 C 1.128906 -4.648438 0.46875 -3.964844 0.46875 -3.191406 C 0.46875 -2.277344 1.378906 -1.972656 1.902344 -1.777344 C 2.3125 -1.617188 2.449219 -1.503906 2.449219 -1.34375 C 2.449219 -1.160156 2.289062 -1.058594 2.050781 -1.058594 C 1.8125 -1.058594 1.492188 -1.152344 1.289062 -1.539062 L 0.214844 -1.003906 C 0.488281 -0.296875 1.332031 0.0898438 2.140625 0.0898438 Z M 2.140625 0.0898438 "/></g></g></g><g fill="rgb(100%, 100%, 100%)" fill-opacity="1"><g transform="translate(71.611376, 78.206799)"><g/></g></g><g fill="rgb(100%, 100%, 100%)" fill-opacity="1"><g transform="translate(74.955583, 78.206799)"><g><path d="M 3.429688 -4.648438 C 2.90625 -4.648438 2.472656 -4.464844 2.128906 -4.15625 L 2.128906 -4.546875 L 0.671875 -4.558594 L 0.671875 2.734375 L 2.128906 2.746094 L 2.128906 -0.398438 C 2.472656 -0.0898438 2.90625 0.0898438 3.429688 0.0898438 C 4.683594 0.0898438 5.671875 -0.957031 5.671875 -2.277344 C 5.671875 -3.601562 4.683594 -4.648438 3.429688 -4.648438 Z M 3.144531 -1.195312 C 2.539062 -1.195312 2.0625 -1.675781 2.0625 -2.277344 C 2.0625 -2.882812 2.539062 -3.359375 3.144531 -3.359375 C 3.746094 -3.359375 4.226562 -2.882812 4.226562 -2.277344 C 4.226562 -1.675781 3.746094 -1.195312 3.144531 -1.195312 Z M 3.144531 -1.195312 "/></g></g></g><g fill="rgb(100%, 100%, 100%)" fill-opacity="1"><g transform="translate(81.590992, 78.206799)"><g><path d="M 2.894531 0.0898438 C 4.421875 0.0898438 5.421875 -0.910156 5.421875 -2.277344 C 5.421875 -3.644531 4.421875 -4.648438 2.894531 -4.648438 C 1.367188 -4.648438 0.351562 -3.644531 0.351562 -2.277344 C 0.351562 -0.910156 1.367188 0.0898438 2.894531 0.0898438 Z M 2.894531 -1.195312 C 2.265625 -1.207031 1.8125 -1.664062 1.8125 -2.277344 C 1.8125 -2.894531 2.265625 -3.347656 2.894531 -3.359375 C 3.507812 -3.347656 3.976562 -2.894531 3.976562 -2.277344 C 3.976562 -1.664062 3.507812 -1.207031 2.894531 -1.195312 Z M 2.894531 -1.195312 "/></g></g></g><g fill="rgb(100%, 100%, 100%)" fill-opacity="1"><g transform="translate(87.987256, 78.206799)"><g><path d="M 1.425781 -5.320312 C 1.855469 -5.320312 2.222656 -5.683594 2.222656 -6.117188 C 2.222656 -6.5625 1.855469 -6.914062 1.425781 -6.914062 C 0.992188 -6.914062 0.625 -6.5625 0.625 -6.117188 C 0.625 -5.683594 0.992188 -5.320312 1.425781 -5.320312 Z M 0.695312 0 L 2.140625 0 L 2.140625 -4.558594 L 0.695312 -4.558594 Z M 0.695312 0 "/></g></g></g><g fill="rgb(100%, 100%, 100%)" fill-opacity="1"><g transform="translate(91.44534, 78.206799)"><g><path d="M 3.429688 -4.648438 C 2.90625 -4.648438 2.449219 -4.398438 2.128906 -4 L 2.128906 -4.558594 L 0.671875 -4.558594 L 0.671875 0 L 2.128906 0 L 2.128906 -2.644531 C 2.128906 -3.054688 2.472656 -3.359375 2.894531 -3.359375 C 3.316406 -3.359375 3.609375 -3.054688 3.609375 -2.644531 L 3.609375 0 L 5.058594 0 L 5.058594 -2.882812 C 5.058594 -3.882812 4.328125 -4.648438 3.429688 -4.648438 Z M 3.429688 -4.648438 "/></g></g></g><g fill="rgb(100%, 100%, 100%)" fill-opacity="1"><g transform="translate(97.693556, 78.206799)"><g><path d="M 3.417969 -3.429688 L 3.417969 -4.558594 L 2.335938 -4.558594 L 2.335938 -6.3125 L 0.886719 -6.3125 L 0.886719 -4.558594 L 0.125 -4.558594 L 0.125 -3.429688 L 0.886719 -3.429688 L 0.886719 -1.628906 C 0.886719 -0.660156 1.707031 0.0898438 2.675781 0.0898438 C 2.984375 0.0898438 3.292969 0.0234375 3.40625 -0.0585938 L 3.40625 -1.183594 L 2.859375 -1.183594 C 2.550781 -1.183594 2.335938 -1.425781 2.335938 -1.800781 L 2.335938 -3.429688 Z M 3.417969 -3.429688 "/></g></g></g><g fill="rgb(100%, 100%, 100%)" fill-opacity="1"><g transform="translate(101.948819, 78.206799)"><g><path d="M 2.140625 0.0898438 C 3.167969 0.0898438 3.792969 -0.535156 3.792969 -1.390625 C 3.792969 -2.300781 3.042969 -2.664062 2.390625 -2.917969 C 2.0625 -3.054688 1.902344 -3.121094 1.902344 -3.292969 C 1.902344 -3.441406 2.015625 -3.554688 2.265625 -3.554688 C 2.5625 -3.554688 2.835938 -3.394531 2.972656 -3.222656 L 3.703125 -4.042969 C 3.359375 -4.386719 2.800781 -4.648438 2.164062 -4.648438 C 1.128906 -4.648438 0.46875 -3.964844 0.46875 -3.191406 C 0.46875 -2.277344 1.378906 -1.972656 1.902344 -1.777344 C 2.3125 -1.617188 2.449219 -1.503906 2.449219 -1.34375 C 2.449219 -1.160156 2.289062 -1.058594 2.050781 -1.058594 C 1.8125 -1.058594 1.492188 -1.152344 1.289062 -1.539062 L 0.214844 -1.003906 C 0.488281 -0.296875 1.332031 0.0898438 2.140625 0.0898438 Z M 2.140625 0.0898438 "/></g></g></g><g fill="rgb(100%, 100%, 100%)" fill-opacity="1"><g transform="translate(106.568507, 78.206799)"><g/></g></g><g fill="rgb(100%, 100%, 100%)" fill-opacity="1"><g transform="translate(109.912708, 78.206799)"><g><path d="M 2.140625 0.0898438 C 3.167969 0.0898438 3.792969 -0.535156 3.792969 -1.390625 C 3.792969 -2.300781 3.042969 -2.664062 2.390625 -2.917969 C 2.0625 -3.054688 1.902344 -3.121094 1.902344 -3.292969 C 1.902344 -3.441406 2.015625 -3.554688 2.265625 -3.554688 C 2.5625 -3.554688 2.835938 -3.394531 2.972656 -3.222656 L 3.703125 -4.042969 C 3.359375 -4.386719 2.800781 -4.648438 2.164062 -4.648438 C 1.128906 -4.648438 0.46875 -3.964844 0.46875 -3.191406 C 0.46875 -2.277344 1.378906 -1.972656 1.902344 -1.777344 C 2.3125 -1.617188 2.449219 -1.503906 2.449219 -1.34375 C 2.449219 -1.160156 2.289062 -1.058594 2.050781 -1.058594 C 1.8125 -1.058594 1.492188 -1.152344 1.289062 -1.539062 L 0.214844 -1.003906 C 0.488281 -0.296875 1.332031 0.0898438 2.140625 0.0898438 Z M 2.140625 0.0898438 "/></g></g></g><g fill="rgb(100%, 100%, 100%)" fill-opacity="1"><g transform="translate(114.532396, 78.206799)"><g><path d="M 2.710938 0.0898438 C 4.089844 0.0898438 4.851562 -0.625 4.851562 -1.742188 L 4.851562 -4.558594 L 3.40625 -4.558594 L 3.40625 -1.9375 C 3.40625 -1.503906 3.109375 -1.195312 2.710938 -1.195312 C 2.324219 -1.195312 2.027344 -1.503906 2.027344 -1.9375 L 2.027344 -4.558594 L 0.570312 -4.558594 L 0.570312 -1.742188 C 0.570312 -0.625 1.332031 0.0898438 2.710938 0.0898438 Z M 2.710938 0.0898438 "/></g></g></g><g fill="rgb(100%, 100%, 100%)" fill-opacity="1"><g transform="translate(120.575614, 78.206799)"><g><path d="M 3.40625 -4.648438 C 2.871094 -4.648438 2.425781 -4.375 2.128906 -3.929688 L 2.128906 -4.558594 L 0.671875 -4.558594 L 0.671875 0 L 2.128906 0 L 2.128906 -2.175781 C 2.128906 -2.925781 2.644531 -3.359375 3.359375 -3.359375 C 3.53125 -3.359375 3.679688 -3.335938 3.78125 -3.316406 L 3.78125 -4.601562 C 3.679688 -4.636719 3.542969 -4.648438 3.40625 -4.648438 Z M 3.40625 -4.648438 "/></g></g></g><g fill="rgb(100%, 100%, 100%)" fill-opacity="1"><g transform="translate(124.943874, 78.206799)"><g/></g></g><g fill="rgb(100%, 100%, 100%)" fill-opacity="1"><g transform="translate(12.853217, 90.947567)"><g><path d="M 2.894531 0.0898438 C 4.261719 0.0898438 5.195312 -0.707031 5.386719 -1.84375 L 3.882812 -1.84375 C 3.738281 -1.457031 3.359375 -1.207031 2.894531 -1.195312 C 2.265625 -1.207031 1.8125 -1.664062 1.8125 -2.277344 C 1.8125 -2.894531 2.265625 -3.347656 2.894531 -3.359375 C 3.359375 -3.347656 3.738281 -3.097656 3.882812 -2.710938 L 5.386719 -2.710938 C 5.195312 -3.851562 4.261719 -4.648438 2.894531 -4.648438 C 1.367188 -4.648438 0.351562 -3.644531 0.351562 -2.277344 C 0.351562 -0.910156 1.367188 0.0898438 2.894531 0.0898438 Z M 2.894531 0.0898438 "/></g></g></g><g fill="rgb(100%, 100%, 100%)" fill-opacity="1"><g transform="translate(19.112822, 90.947567)"><g><path d="M 3.40625 -4.648438 C 2.90625 -4.648438 2.449219 -4.421875 2.128906 -4.042969 L 2.128906 -7.804688 L 0.671875 -7.804688 L 0.671875 0 L 2.128906 0 L 2.128906 -2.574219 C 2.128906 -2.972656 2.460938 -3.359375 2.90625 -3.359375 C 3.316406 -3.359375 3.601562 -3.042969 3.601562 -2.644531 L 3.601562 0 L 5.058594 0 L 5.058594 -2.882812 C 5.058594 -3.882812 4.328125 -4.648438 3.40625 -4.648438 Z M 3.40625 -4.648438 "/></g></g></g><g fill="rgb(100%, 100%, 100%)" fill-opacity="1"><g transform="translate(25.349647, 90.947567)"><g><path d="M 5.753906 -1.183594 C 5.558594 -1.183594 5.355469 -1.253906 5.355469 -1.628906 L 5.355469 -4.558594 L 3.90625 -4.558594 L 3.90625 -4.15625 C 3.566406 -4.464844 3.132812 -4.648438 2.609375 -4.648438 C 1.34375 -4.648438 0.351562 -3.601562 0.351562 -2.277344 C 0.351562 -0.957031 1.34375 0.0898438 2.609375 0.0898438 C 3.269531 0.0898438 3.804688 -0.203125 4.167969 -0.683594 C 4.453125 -0.214844 4.957031 0.0898438 5.570312 0.0898438 C 5.71875 0.0898438 5.855469 0.046875 5.957031 0 L 5.957031 -1.183594 Z M 2.894531 -1.195312 C 2.289062 -1.195312 1.8125 -1.675781 1.8125 -2.277344 C 1.8125 -2.882812 2.289062 -3.359375 2.894531 -3.359375 C 3.484375 -3.359375 3.976562 -2.882812 3.976562 -2.277344 C 3.976562 -1.675781 3.484375 -1.195312 2.894531 -1.195312 Z M 2.894531 -1.195312 "/></g></g></g><g fill="rgb(100%, 100%, 100%)" fill-opacity="1"><g transform="translate(32.087553, 90.947567)"><g><path d="M 5.878906 1.457031 C 5.570312 1.457031 5.355469 1.21875 5.355469 0.84375 L 5.355469 -4.558594 L 3.90625 -4.558594 L 3.90625 -4.15625 C 3.566406 -4.464844 3.132812 -4.648438 2.609375 -4.648438 C 1.34375 -4.648438 0.351562 -3.601562 0.351562 -2.277344 C 0.351562 -0.957031 1.34375 0.0898438 2.609375 0.0898438 C 3.132812 0.0898438 3.566406 -0.0898438 3.90625 -0.398438 L 3.90625 1.015625 C 3.90625 1.980469 4.726562 2.734375 5.695312 2.734375 C 5.921875 2.734375 6.152344 2.6875 6.300781 2.644531 L 6.300781 1.457031 Z M 2.894531 -1.195312 C 2.289062 -1.195312 1.8125 -1.675781 1.8125 -2.277344 C 1.8125 -2.882812 2.289062 -3.359375 2.894531 -3.359375 C 3.484375 -3.359375 3.976562 -2.882812 3.976562 -2.277344 C 3.976562 -1.675781 3.484375 -1.195312 2.894531 -1.195312 Z M 2.894531 -1.195312 "/></g></g></g><g fill="rgb(100%, 100%, 100%)" fill-opacity="1"><g transform="translate(38.722962, 90.947567)"><g><path d="M 2.710938 0.0898438 C 4.089844 0.0898438 4.851562 -0.625 4.851562 -1.742188 L 4.851562 -4.558594 L 3.40625 -4.558594 L 3.40625 -1.9375 C 3.40625 -1.503906 3.109375 -1.195312 2.710938 -1.195312 C 2.324219 -1.195312 2.027344 -1.503906 2.027344 -1.9375 L 2.027344 -4.558594 L 0.570312 -4.558594 L 0.570312 -1.742188 C 0.570312 -0.625 1.332031 0.0898438 2.710938 0.0898438 Z M 2.710938 0.0898438 "/></g></g></g><g fill="rgb(100%, 100%, 100%)" fill-opacity="1"><g transform="translate(44.76618, 90.947567)"><g><path d="M 5.308594 -2.289062 C 5.308594 -3.714844 4.328125 -4.660156 2.859375 -4.660156 C 1.390625 -4.660156 0.351562 -3.703125 0.351562 -2.277344 C 0.351562 -0.855469 1.378906 0.0898438 2.90625 0.0898438 C 4.167969 0.0898438 5.011719 -0.582031 5.238281 -1.570312 L 3.839844 -1.570312 C 3.714844 -1.207031 3.382812 -0.992188 2.882812 -0.992188 C 2.222656 -0.992188 1.878906 -1.390625 1.824219 -2.039062 L 5.308594 -2.039062 Z M 2.882812 -3.542969 C 3.371094 -3.542969 3.65625 -3.316406 3.804688 -2.917969 L 1.914062 -2.917969 C 2.0625 -3.304688 2.371094 -3.542969 2.882812 -3.542969 Z M 2.882812 -3.542969 "/></g></g></g><g fill="rgb(100%, 100%, 100%)" fill-opacity="1"><g transform="translate(51.025785, 90.947567)"><g/></g></g><g fill="rgb(100%, 100%, 100%)" fill-opacity="1"><g transform="translate(54.369992, 90.947567)"><g><path d="M 3.417969 -3.429688 L 3.417969 -4.558594 L 2.335938 -4.558594 L 2.335938 -6.3125 L 0.886719 -6.3125 L 0.886719 -4.558594 L 0.125 -4.558594 L 0.125 -3.429688 L 0.886719 -3.429688 L 0.886719 -1.628906 C 0.886719 -0.660156 1.707031 0.0898438 2.675781 0.0898438 C 2.984375 0.0898438 3.292969 0.0234375 3.40625 -0.0585938 L 3.40625 -1.183594 L 2.859375 -1.183594 C 2.550781 -1.183594 2.335938 -1.425781 2.335938 -1.800781 L 2.335938 -3.429688 Z M 3.417969 -3.429688 "/></g></g></g><g fill="rgb(100%, 100%, 100%)" fill-opacity="1"><g transform="translate(58.625255, 90.947567)"><g><path d="M 3.40625 -4.648438 C 2.871094 -4.648438 2.425781 -4.375 2.128906 -3.929688 L 2.128906 -4.558594 L 0.671875 -4.558594 L 0.671875 0 L 2.128906 0 L 2.128906 -2.175781 C 2.128906 -2.925781 2.644531 -3.359375 3.359375 -3.359375 C 3.53125 -3.359375 3.679688 -3.335938 3.78125 -3.316406 L 3.78125 -4.601562 C 3.679688 -4.636719 3.542969 -4.648438 3.40625 -4.648438 Z M 3.40625 -4.648438 "/></g></g></g><g fill="rgb(100%, 100%, 100%)" fill-opacity="1"><g transform="translate(62.994394, 90.947567)"><g><path d="M 5.753906 -1.183594 C 5.558594 -1.183594 5.355469 -1.253906 5.355469 -1.628906 L 5.355469 -4.558594 L 3.90625 -4.558594 L 3.90625 -4.15625 C 3.566406 -4.464844 3.132812 -4.648438 2.609375 -4.648438 C 1.34375 -4.648438 0.351562 -3.601562 0.351562 -2.277344 C 0.351562 -0.957031 1.34375 0.0898438 2.609375 0.0898438 C 3.269531 0.0898438 3.804688 -0.203125 4.167969 -0.683594 C 4.453125 -0.214844 4.957031 0.0898438 5.570312 0.0898438 C 5.71875 0.0898438 5.855469 0.046875 5.957031 0 L 5.957031 -1.183594 Z M 2.894531 -1.195312 C 2.289062 -1.195312 1.8125 -1.675781 1.8125 -2.277344 C 1.8125 -2.882812 2.289062 -3.359375 2.894531 -3.359375 C 3.484375 -3.359375 3.976562 -2.882812 3.976562 -2.277344 C 3.976562 -1.675781 3.484375 -1.195312 2.894531 -1.195312 Z M 2.894531 -1.195312 "/></g></g></g><g fill="rgb(100%, 100%, 100%)" fill-opacity="1"><g transform="translate(69.732302, 90.947567)"><g><path d="M 3.429688 -4.648438 C 2.90625 -4.648438 2.449219 -4.398438 2.128906 -4 L 2.128906 -4.558594 L 0.671875 -4.558594 L 0.671875 0 L 2.128906 0 L 2.128906 -2.644531 C 2.128906 -3.054688 2.472656 -3.359375 2.894531 -3.359375 C 3.316406 -3.359375 3.609375 -3.054688 3.609375 -2.644531 L 3.609375 0 L 5.058594 0 L 5.058594 -2.882812 C 5.058594 -3.882812 4.328125 -4.648438 3.429688 -4.648438 Z M 3.429688 -4.648438 "/></g></g></g><g fill="rgb(100%, 100%, 100%)" fill-opacity="1"><g transform="translate(75.980517, 90.947567)"><g><path d="M 2.140625 0.0898438 C 3.167969 0.0898438 3.792969 -0.535156 3.792969 -1.390625 C 3.792969 -2.300781 3.042969 -2.664062 2.390625 -2.917969 C 2.0625 -3.054688 1.902344 -3.121094 1.902344 -3.292969 C 1.902344 -3.441406 2.015625 -3.554688 2.265625 -3.554688 C 2.5625 -3.554688 2.835938 -3.394531 2.972656 -3.222656 L 3.703125 -4.042969 C 3.359375 -4.386719 2.800781 -4.648438 2.164062 -4.648438 C 1.128906 -4.648438 0.46875 -3.964844 0.46875 -3.191406 C 0.46875 -2.277344 1.378906 -1.972656 1.902344 -1.777344 C 2.3125 -1.617188 2.449219 -1.503906 2.449219 -1.34375 C 2.449219 -1.160156 2.289062 -1.058594 2.050781 -1.058594 C 1.8125 -1.058594 1.492188 -1.152344 1.289062 -1.539062 L 0.214844 -1.003906 C 0.488281 -0.296875 1.332031 0.0898438 2.140625 0.0898438 Z M 2.140625 0.0898438 "/></g></g></g><g fill="rgb(100%, 100%, 100%)" fill-opacity="1"><g transform="translate(80.600205, 90.947567)"><g><path d="M 5.753906 -1.183594 C 5.558594 -1.183594 5.355469 -1.253906 5.355469 -1.628906 L 5.355469 -4.558594 L 3.90625 -4.558594 L 3.90625 -4.15625 C 3.566406 -4.464844 3.132812 -4.648438 2.609375 -4.648438 C 1.34375 -4.648438 0.351562 -3.601562 0.351562 -2.277344 C 0.351562 -0.957031 1.34375 0.0898438 2.609375 0.0898438 C 3.269531 0.0898438 3.804688 -0.203125 4.167969 -0.683594 C 4.453125 -0.214844 4.957031 0.0898438 5.570312 0.0898438 C 5.71875 0.0898438 5.855469 0.046875 5.957031 0 L 5.957031 -1.183594 Z M 2.894531 -1.195312 C 2.289062 -1.195312 1.8125 -1.675781 1.8125 -2.277344 C 1.8125 -2.882812 2.289062 -3.359375 2.894531 -3.359375 C 3.484375 -3.359375 3.976562 -2.882812 3.976562 -2.277344 C 3.976562 -1.675781 3.484375 -1.195312 2.894531 -1.195312 Z M 2.894531 -1.195312 "/></g></g></g><g fill="rgb(100%, 100%, 100%)" fill-opacity="1"><g transform="translate(87.338114, 90.947567)"><g><path d="M 2.894531 0.0898438 C 4.261719 0.0898438 5.195312 -0.707031 5.386719 -1.84375 L 3.882812 -1.84375 C 3.738281 -1.457031 3.359375 -1.207031 2.894531 -1.195312 C 2.265625 -1.207031 1.8125 -1.664062 1.8125 -2.277344 C 1.8125 -2.894531 2.265625 -3.347656 2.894531 -3.359375 C 3.359375 -3.347656 3.738281 -3.097656 3.882812 -2.710938 L 5.386719 -2.710938 C 5.195312 -3.851562 4.261719 -4.648438 2.894531 -4.648438 C 1.367188 -4.648438 0.351562 -3.644531 0.351562 -2.277344 C 0.351562 -0.910156 1.367188 0.0898438 2.894531 0.0898438 Z M 2.894531 0.0898438 "/></g></g></g><g fill="rgb(100%, 100%, 100%)" fill-opacity="1"><g transform="translate(93.597719, 90.947567)"><g><path d="M 3.417969 -3.429688 L 3.417969 -4.558594 L 2.335938 -4.558594 L 2.335938 -6.3125 L 0.886719 -6.3125 L 0.886719 -4.558594 L 0.125 -4.558594 L 0.125 -3.429688 L 0.886719 -3.429688 L 0.886719 -1.628906 C 0.886719 -0.660156 1.707031 0.0898438 2.675781 0.0898438 C 2.984375 0.0898438 3.292969 0.0234375 3.40625 -0.0585938 L 3.40625 -1.183594 L 2.859375 -1.183594 C 2.550781 -1.183594 2.335938 -1.425781 2.335938 -1.800781 L 2.335938 -3.429688 Z M 3.417969 -3.429688 "/></g></g></g><g fill="rgb(100%, 100%, 100%)" fill-opacity="1"><g transform="translate(97.852982, 90.947567)"><g><path d="M 1.425781 -5.320312 C 1.855469 -5.320312 2.222656 -5.683594 2.222656 -6.117188 C 2.222656 -6.5625 1.855469 -6.914062 1.425781 -6.914062 C 0.992188 -6.914062 0.625 -6.5625 0.625 -6.117188 C 0.625 -5.683594 0.992188 -5.320312 1.425781 -5.320312 Z M 0.695312 0 L 2.140625 0 L 2.140625 -4.558594 L 0.695312 -4.558594 Z M 0.695312 0 "/></g></g></g><g fill="rgb(100%, 100%, 100%)" fill-opacity="1"><g transform="translate(101.311067, 90.947567)"><g><path d="M 2.894531 0.0898438 C 4.421875 0.0898438 5.421875 -0.910156 5.421875 -2.277344 C 5.421875 -3.644531 4.421875 -4.648438 2.894531 -4.648438 C 1.367188 -4.648438 0.351562 -3.644531 0.351562 -2.277344 C 0.351562 -0.910156 1.367188 0.0898438 2.894531 0.0898438 Z M 2.894531 -1.195312 C 2.265625 -1.207031 1.8125 -1.664062 1.8125 -2.277344 C 1.8125 -2.894531 2.265625 -3.347656 2.894531 -3.359375 C 3.507812 -3.347656 3.976562 -2.894531 3.976562 -2.277344 C 3.976562 -1.664062 3.507812 -1.207031 2.894531 -1.195312 Z M 2.894531 -1.195312 "/></g></g></g><g fill="rgb(100%, 100%, 100%)" fill-opacity="1"><g transform="translate(107.70733, 90.947567)"><g><path d="M 3.429688 -4.648438 C 2.90625 -4.648438 2.449219 -4.398438 2.128906 -4 L 2.128906 -4.558594 L 0.671875 -4.558594 L 0.671875 0 L 2.128906 0 L 2.128906 -2.644531 C 2.128906 -3.054688 2.472656 -3.359375 2.894531 -3.359375 C 3.316406 -3.359375 3.609375 -3.054688 3.609375 -2.644531 L 3.609375 0 L 5.058594 0 L 5.058594 -2.882812 C 5.058594 -3.882812 4.328125 -4.648438 3.429688 -4.648438 Z M 3.429688 -4.648438 "/></g></g></g><g fill="rgb(100%, 100%, 100%)" fill-opacity="1"><g transform="translate(113.95554, 90.947567)"><g/></g></g><g fill="rgb(100%, 100%, 100%)" fill-opacity="1"><g transform="translate(117.299747, 90.947567)"><g><path d="M 5.308594 -2.289062 C 5.308594 -3.714844 4.328125 -4.660156 2.859375 -4.660156 C 1.390625 -4.660156 0.351562 -3.703125 0.351562 -2.277344 C 0.351562 -0.855469 1.378906 0.0898438 2.90625 0.0898438 C 4.167969 0.0898438 5.011719 -0.582031 5.238281 -1.570312 L 3.839844 -1.570312 C 3.714844 -1.207031 3.382812 -0.992188 2.882812 -0.992188 C 2.222656 -0.992188 1.878906 -1.390625 1.824219 -2.039062 L 5.308594 -2.039062 Z M 2.882812 -3.542969 C 3.371094 -3.542969 3.65625 -3.316406 3.804688 -2.917969 L 1.914062 -2.917969 C 2.0625 -3.304688 2.371094 -3.542969 2.882812 -3.542969 Z M 2.882812 -3.542969 "/></g></g></g><g fill="rgb(100%, 100%, 100%)" fill-opacity="1"><g transform="translate(123.559353, 90.947567)"><g><path d="M 3.429688 -4.648438 C 2.90625 -4.648438 2.449219 -4.398438 2.128906 -4 L 2.128906 -4.558594 L 0.671875 -4.558594 L 0.671875 0 L 2.128906 0 L 2.128906 -2.644531 C 2.128906 -3.054688 2.472656 -3.359375 2.894531 -3.359375 C 3.316406 -3.359375 3.609375 -3.054688 3.609375 -2.644531 L 3.609375 0 L 5.058594 0 L 5.058594 -2.882812 C 5.058594 -3.882812 4.328125 -4.648438 3.429688 -4.648438 Z M 3.429688 -4.648438 "/></g></g></g><g fill="rgb(100%, 100%, 100%)" fill-opacity="1"><g transform="translate(129.803634, 90.947567)"><g/></g></g><g fill="rgb(100%, 100%, 100%)" fill-opacity="1"><g transform="translate(12.853217, 103.688335)"><g><path d="M 2.710938 0.0898438 C 4.089844 0.0898438 4.851562 -0.625 4.851562 -1.742188 L 4.851562 -4.558594 L 3.40625 -4.558594 L 3.40625 -1.9375 C 3.40625 -1.503906 3.109375 -1.195312 2.710938 -1.195312 C 2.324219 -1.195312 2.027344 -1.503906 2.027344 -1.9375 L 2.027344 -4.558594 L 0.570312 -4.558594 L 0.570312 -1.742188 C 0.570312 -0.625 1.332031 0.0898438 2.710938 0.0898438 Z M 2.710938 0.0898438 "/></g></g></g><g fill="rgb(100%, 100%, 100%)" fill-opacity="1"><g transform="translate(18.896434, 103.688335)"><g><path d="M 3.417969 -3.429688 L 3.417969 -4.558594 L 2.335938 -4.558594 L 2.335938 -6.3125 L 0.886719 -6.3125 L 0.886719 -4.558594 L 0.125 -4.558594 L 0.125 -3.429688 L 0.886719 -3.429688 L 0.886719 -1.628906 C 0.886719 -0.660156 1.707031 0.0898438 2.675781 0.0898438 C 2.984375 0.0898438 3.292969 0.0234375 3.40625 -0.0585938 L 3.40625 -1.183594 L 2.859375 -1.183594 C 2.550781 -1.183594 2.335938 -1.425781 2.335938 -1.800781 L 2.335938 -3.429688 Z M 3.417969 -3.429688 "/></g></g></g><g fill="rgb(100%, 100%, 100%)" fill-opacity="1"><g transform="translate(23.151696, 103.688335)"><g><path d="M 1.425781 -5.320312 C 1.855469 -5.320312 2.222656 -5.683594 2.222656 -6.117188 C 2.222656 -6.5625 1.855469 -6.914062 1.425781 -6.914062 C 0.992188 -6.914062 0.625 -6.5625 0.625 -6.117188 C 0.625 -5.683594 0.992188 -5.320312 1.425781 -5.320312 Z M 0.695312 0 L 2.140625 0 L 2.140625 -4.558594 L 0.695312 -4.558594 Z M 0.695312 0 "/></g></g></g><g fill="rgb(100%, 100%, 100%)" fill-opacity="1"><g transform="translate(26.60978, 103.688335)"><g><path d="M 0.671875 0 L 2.128906 0 L 2.128906 -7.804688 L 0.671875 -7.804688 Z M 0.671875 0 "/></g></g></g><g fill="rgb(100%, 100%, 100%)" fill-opacity="1"><g transform="translate(30.022316, 103.688335)"><g><path d="M 1.425781 -5.320312 C 1.855469 -5.320312 2.222656 -5.683594 2.222656 -6.117188 C 2.222656 -6.5625 1.855469 -6.914062 1.425781 -6.914062 C 0.992188 -6.914062 0.625 -6.5625 0.625 -6.117188 C 0.625 -5.683594 0.992188 -5.320312 1.425781 -5.320312 Z M 0.695312 0 L 2.140625 0 L 2.140625 -4.558594 L 0.695312 -4.558594 Z M 0.695312 0 "/></g></g></g><g fill="rgb(100%, 100%, 100%)" fill-opacity="1"><g transform="translate(33.4804, 103.688335)"><g><path d="M 2.140625 0.0898438 C 3.167969 0.0898438 3.792969 -0.535156 3.792969 -1.390625 C 3.792969 -2.300781 3.042969 -2.664062 2.390625 -2.917969 C 2.0625 -3.054688 1.902344 -3.121094 1.902344 -3.292969 C 1.902344 -3.441406 2.015625 -3.554688 2.265625 -3.554688 C 2.5625 -3.554688 2.835938 -3.394531 2.972656 -3.222656 L 3.703125 -4.042969 C 3.359375 -4.386719 2.800781 -4.648438 2.164062 -4.648438 C 1.128906 -4.648438 0.46875 -3.964844 0.46875 -3.191406 C 0.46875 -2.277344 1.378906 -1.972656 1.902344 -1.777344 C 2.3125 -1.617188 2.449219 -1.503906 2.449219 -1.34375 C 2.449219 -1.160156 2.289062 -1.058594 2.050781 -1.058594 C 1.8125 -1.058594 1.492188 -1.152344 1.289062 -1.539062 L 0.214844 -1.003906 C 0.488281 -0.296875 1.332031 0.0898438 2.140625 0.0898438 Z M 2.140625 0.0898438 "/></g></g></g><g fill="rgb(100%, 100%, 100%)" fill-opacity="1"><g transform="translate(38.100088, 103.688335)"><g><path d="M 5.753906 -1.183594 C 5.558594 -1.183594 5.355469 -1.253906 5.355469 -1.628906 L 5.355469 -4.558594 L 3.90625 -4.558594 L 3.90625 -4.15625 C 3.566406 -4.464844 3.132812 -4.648438 2.609375 -4.648438 C 1.34375 -4.648438 0.351562 -3.601562 0.351562 -2.277344 C 0.351562 -0.957031 1.34375 0.0898438 2.609375 0.0898438 C 3.269531 0.0898438 3.804688 -0.203125 4.167969 -0.683594 C 4.453125 -0.214844 4.957031 0.0898438 5.570312 0.0898438 C 5.71875 0.0898438 5.855469 0.046875 5.957031 0 L 5.957031 -1.183594 Z M 2.894531 -1.195312 C 2.289062 -1.195312 1.8125 -1.675781 1.8125 -2.277344 C 1.8125 -2.882812 2.289062 -3.359375 2.894531 -3.359375 C 3.484375 -3.359375 3.976562 -2.882812 3.976562 -2.277344 C 3.976562 -1.675781 3.484375 -1.195312 2.894531 -1.195312 Z M 2.894531 -1.195312 "/></g></g></g><g fill="rgb(100%, 100%, 100%)" fill-opacity="1"><g transform="translate(44.837997, 103.688335)"><g><path d="M 3.429688 -4.648438 C 2.90625 -4.648438 2.449219 -4.398438 2.128906 -4 L 2.128906 -4.558594 L 0.671875 -4.558594 L 0.671875 0 L 2.128906 0 L 2.128906 -2.644531 C 2.128906 -3.054688 2.472656 -3.359375 2.894531 -3.359375 C 3.316406 -3.359375 3.609375 -3.054688 3.609375 -2.644531 L 3.609375 0 L 5.058594 0 L 5.058594 -2.882812 C 5.058594 -3.882812 4.328125 -4.648438 3.429688 -4.648438 Z M 3.429688 -4.648438 "/></g></g></g><g fill="rgb(100%, 100%, 100%)" fill-opacity="1"><g transform="translate(51.086212, 103.688335)"><g><path d="M 3.417969 -3.429688 L 3.417969 -4.558594 L 2.335938 -4.558594 L 2.335938 -6.3125 L 0.886719 -6.3125 L 0.886719 -4.558594 L 0.125 -4.558594 L 0.125 -3.429688 L 0.886719 -3.429688 L 0.886719 -1.628906 C 0.886719 -0.660156 1.707031 0.0898438 2.675781 0.0898438 C 2.984375 0.0898438 3.292969 0.0234375 3.40625 -0.0585938 L 3.40625 -1.183594 L 2.859375 -1.183594 C 2.550781 -1.183594 2.335938 -1.425781 2.335938 -1.800781 L 2.335938 -3.429688 Z M 3.417969 -3.429688 "/></g></g></g><g fill="rgb(100%, 100%, 100%)" fill-opacity="1"><g transform="translate(55.341475, 103.688335)"><g/></g></g><g fill="rgb(100%, 100%, 100%)" fill-opacity="1"><g transform="translate(58.685682, 103.688335)"><g><path d="M 3.429688 -4.648438 C 2.90625 -4.648438 2.449219 -4.398438 2.128906 -4 L 2.128906 -4.558594 L 0.671875 -4.558594 L 0.671875 0 L 2.128906 0 L 2.128906 -2.644531 C 2.128906 -3.054688 2.472656 -3.359375 2.894531 -3.359375 C 3.316406 -3.359375 3.609375 -3.054688 3.609375 -2.644531 L 3.609375 0 L 5.058594 0 L 5.058594 -2.882812 C 5.058594 -3.882812 4.328125 -4.648438 3.429688 -4.648438 Z M 3.429688 -4.648438 "/></g></g></g><g fill="rgb(100%, 100%, 100%)" fill-opacity="1"><g transform="translate(64.933895, 103.688335)"><g><path d="M 2.894531 0.0898438 C 4.421875 0.0898438 5.421875 -0.910156 5.421875 -2.277344 C 5.421875 -3.644531 4.421875 -4.648438 2.894531 -4.648438 C 1.367188 -4.648438 0.351562 -3.644531 0.351562 -2.277344 C 0.351562 -0.910156 1.367188 0.0898438 2.894531 0.0898438 Z M 2.894531 -1.195312 C 2.265625 -1.207031 1.8125 -1.664062 1.8125 -2.277344 C 1.8125 -2.894531 2.265625 -3.347656 2.894531 -3.359375 C 3.507812 -3.347656 3.976562 -2.894531 3.976562 -2.277344 C 3.976562 -1.664062 3.507812 -1.207031 2.894531 -1.195312 Z M 2.894531 -1.195312 "/></g></g></g><g fill="rgb(100%, 100%, 100%)" fill-opacity="1"><g transform="translate(71.330158, 103.688335)"><g><path d="M 3.417969 -3.429688 L 3.417969 -4.558594 L 2.335938 -4.558594 L 2.335938 -6.3125 L 0.886719 -6.3125 L 0.886719 -4.558594 L 0.125 -4.558594 L 0.125 -3.429688 L 0.886719 -3.429688 L 0.886719 -1.628906 C 0.886719 -0.660156 1.707031 0.0898438 2.675781 0.0898438 C 2.984375 0.0898438 3.292969 0.0234375 3.40625 -0.0585938 L 3.40625 -1.183594 L 2.859375 -1.183594 C 2.550781 -1.183594 2.335938 -1.425781 2.335938 -1.800781 L 2.335938 -3.429688 Z M 3.417969 -3.429688 "/></g></g></g><g fill="rgb(100%, 100%, 100%)" fill-opacity="1"><g transform="translate(75.585422, 103.688335)"><g><path d="M 3.40625 -4.648438 C 2.871094 -4.648438 2.425781 -4.375 2.128906 -3.929688 L 2.128906 -4.558594 L 0.671875 -4.558594 L 0.671875 0 L 2.128906 0 L 2.128906 -2.175781 C 2.128906 -2.925781 2.644531 -3.359375 3.359375 -3.359375 C 3.53125 -3.359375 3.679688 -3.335938 3.78125 -3.316406 L 3.78125 -4.601562 C 3.679688 -4.636719 3.542969 -4.648438 3.40625 -4.648438 Z M 3.40625 -4.648438 "/></g></g></g><g fill="rgb(100%, 100%, 100%)" fill-opacity="1"><g transform="translate(79.954563, 103.688335)"><g><path d="M 5.308594 -2.289062 C 5.308594 -3.714844 4.328125 -4.660156 2.859375 -4.660156 C 1.390625 -4.660156 0.351562 -3.703125 0.351562 -2.277344 C 0.351562 -0.855469 1.378906 0.0898438 2.90625 0.0898438 C 4.167969 0.0898438 5.011719 -0.582031 5.238281 -1.570312 L 3.839844 -1.570312 C 3.714844 -1.207031 3.382812 -0.992188 2.882812 -0.992188 C 2.222656 -0.992188 1.878906 -1.390625 1.824219 -2.039062 L 5.308594 -2.039062 Z M 2.882812 -3.542969 C 3.371094 -3.542969 3.65625 -3.316406 3.804688 -2.917969 L 1.914062 -2.917969 C 2.0625 -3.304688 2.371094 -3.542969 2.882812 -3.542969 Z M 2.882812 -3.542969 "/></g></g></g><g fill="rgb(100%, 100%, 100%)" fill-opacity="1"><g transform="translate(86.214168, 103.688335)"><g/></g></g><g fill="rgb(100%, 100%, 100%)" fill-opacity="1"><g transform="translate(89.558375, 103.688335)"><g><path d="M 2.894531 0.0898438 C 4.261719 0.0898438 5.195312 -0.707031 5.386719 -1.84375 L 3.882812 -1.84375 C 3.738281 -1.457031 3.359375 -1.207031 2.894531 -1.195312 C 2.265625 -1.207031 1.8125 -1.664062 1.8125 -2.277344 C 1.8125 -2.894531 2.265625 -3.347656 2.894531 -3.359375 C 3.359375 -3.347656 3.738281 -3.097656 3.882812 -2.710938 L 5.386719 -2.710938 C 5.195312 -3.851562 4.261719 -4.648438 2.894531 -4.648438 C 1.367188 -4.648438 0.351562 -3.644531 0.351562 -2.277344 C 0.351562 -0.910156 1.367188 0.0898438 2.894531 0.0898438 Z M 2.894531 0.0898438 "/></g></g></g><g fill="rgb(100%, 100%, 100%)" fill-opacity="1"><g transform="translate(95.817981, 103.688335)"><g><path d="M 5.753906 -1.183594 C 5.558594 -1.183594 5.355469 -1.253906 5.355469 -1.628906 L 5.355469 -4.558594 L 3.90625 -4.558594 L 3.90625 -4.15625 C 3.566406 -4.464844 3.132812 -4.648438 2.609375 -4.648438 C 1.34375 -4.648438 0.351562 -3.601562 0.351562 -2.277344 C 0.351562 -0.957031 1.34375 0.0898438 2.609375 0.0898438 C 3.269531 0.0898438 3.804688 -0.203125 4.167969 -0.683594 C 4.453125 -0.214844 4.957031 0.0898438 5.570312 0.0898438 C 5.71875 0.0898438 5.855469 0.046875 5.957031 0 L 5.957031 -1.183594 Z M 2.894531 -1.195312 C 2.289062 -1.195312 1.8125 -1.675781 1.8125 -2.277344 C 1.8125 -2.882812 2.289062 -3.359375 2.894531 -3.359375 C 3.484375 -3.359375 3.976562 -2.882812 3.976562 -2.277344 C 3.976562 -1.675781 3.484375 -1.195312 2.894531 -1.195312 Z M 2.894531 -1.195312 "/></g></g></g><g fill="rgb(100%, 100%, 100%)" fill-opacity="1"><g transform="translate(102.555889, 103.688335)"><g><path d="M 3.40625 -4.648438 C 2.871094 -4.648438 2.425781 -4.375 2.128906 -3.929688 L 2.128906 -4.558594 L 0.671875 -4.558594 L 0.671875 0 L 2.128906 0 L 2.128906 -2.175781 C 2.128906 -2.925781 2.644531 -3.359375 3.359375 -3.359375 C 3.53125 -3.359375 3.679688 -3.335938 3.78125 -3.316406 L 3.78125 -4.601562 C 3.679688 -4.636719 3.542969 -4.648438 3.40625 -4.648438 Z M 3.40625 -4.648438 "/></g></g></g><g fill="rgb(100%, 100%, 100%)" fill-opacity="1"><g transform="translate(106.92503, 103.688335)"><g><path d="M 3.417969 -3.429688 L 3.417969 -4.558594 L 2.335938 -4.558594 L 2.335938 -6.3125 L 0.886719 -6.3125 L 0.886719 -4.558594 L 0.125 -4.558594 L 0.125 -3.429688 L 0.886719 -3.429688 L 0.886719 -1.628906 C 0.886719 -0.660156 1.707031 0.0898438 2.675781 0.0898438 C 2.984375 0.0898438 3.292969 0.0234375 3.40625 -0.0585938 L 3.40625 -1.183594 L 2.859375 -1.183594 C 2.550781 -1.183594 2.335938 -1.425781 2.335938 -1.800781 L 2.335938 -3.429688 Z M 3.417969 -3.429688 "/></g></g></g><g fill="rgb(100%, 100%, 100%)" fill-opacity="1"><g transform="translate(111.180288, 103.688335)"><g><path d="M 5.308594 -2.289062 C 5.308594 -3.714844 4.328125 -4.660156 2.859375 -4.660156 C 1.390625 -4.660156 0.351562 -3.703125 0.351562 -2.277344 C 0.351562 -0.855469 1.378906 0.0898438 2.90625 0.0898438 C 4.167969 0.0898438 5.011719 -0.582031 5.238281 -1.570312 L 3.839844 -1.570312 C 3.714844 -1.207031 3.382812 -0.992188 2.882812 -0.992188 C 2.222656 -0.992188 1.878906 -1.390625 1.824219 -2.039062 L 5.308594 -2.039062 Z M 2.882812 -3.542969 C 3.371094 -3.542969 3.65625 -3.316406 3.804688 -2.917969 L 1.914062 -2.917969 C 2.0625 -3.304688 2.371094 -3.542969 2.882812 -3.542969 Z M 2.882812 -3.542969 "/></g></g></g><g fill="rgb(100%, 100%, 100%)" fill-opacity="1"><g transform="translate(117.439893, 103.688335)"><g/></g></g><g fill="rgb(100%, 100%, 100%)" fill-opacity="1"><g transform="translate(120.7841, 103.688335)"><g><path d="M 3.90625 -7.804688 L 3.90625 -4.15625 C 3.566406 -4.464844 3.132812 -4.648438 2.609375 -4.648438 C 1.34375 -4.648438 0.351562 -3.601562 0.351562 -2.277344 C 0.351562 -0.957031 1.34375 0.0898438 2.609375 0.0898438 C 3.132812 0.0898438 3.566406 -0.0898438 3.90625 -0.398438 L 3.90625 0.0117188 L 5.355469 0 L 5.355469 -7.804688 Z M 2.894531 -1.195312 C 2.289062 -1.195312 1.8125 -1.675781 1.8125 -2.277344 C 1.8125 -2.882812 2.289062 -3.359375 2.894531 -3.359375 C 3.484375 -3.359375 3.976562 -2.882812 3.976562 -2.277344 C 3.976562 -1.675781 3.484375 -1.195312 2.894531 -1.195312 Z M 2.894531 -1.195312 "/></g></g></g><g fill="rgb(100%, 100%, 100%)" fill-opacity="1"><g transform="translate(127.419509, 103.688335)"><g><path d="M 5.308594 -2.289062 C 5.308594 -3.714844 4.328125 -4.660156 2.859375 -4.660156 C 1.390625 -4.660156 0.351562 -3.703125 0.351562 -2.277344 C 0.351562 -0.855469 1.378906 0.0898438 2.90625 0.0898438 C 4.167969 0.0898438 5.011719 -0.582031 5.238281 -1.570312 L 3.839844 -1.570312 C 3.714844 -1.207031 3.382812 -0.992188 2.882812 -0.992188 C 2.222656 -0.992188 1.878906 -1.390625 1.824219 -2.039062 L 5.308594 -2.039062 Z M 2.882812 -3.542969 C 3.371094 -3.542969 3.65625 -3.316406 3.804688 -2.917969 L 1.914062 -2.917969 C 2.0625 -3.304688 2.371094 -3.542969 2.882812 -3.542969 Z M 2.882812 -3.542969 "/></g></g></g><g fill="rgb(100%, 100%, 100%)" fill-opacity="1"><g transform="translate(133.668022, 103.688335)"><g/></g></g><g fill="rgb(100%, 100%, 100%)" fill-opacity="1"><g transform="translate(12.853217, 116.429104)"><g><path d="M 3.429688 -4.558594 L 2.347656 -4.558594 L 2.347656 -5.921875 C 2.347656 -6.300781 2.550781 -6.527344 2.859375 -6.527344 L 3.40625 -6.527344 L 3.40625 -7.667969 C 3.292969 -7.746094 2.984375 -7.804688 2.675781 -7.804688 C 1.707031 -7.804688 0.886719 -7.0625 0.886719 -6.09375 L 0.886719 -4.558594 L 0.125 -4.558594 L 0.125 -3.429688 L 0.886719 -3.429688 L 0.886719 0 L 2.347656 0 L 2.347656 -3.429688 L 3.429688 -3.429688 Z M 3.429688 -4.558594 "/></g></g></g><g fill="rgb(100%, 100%, 100%)" fill-opacity="1"><g transform="translate(16.892103, 116.429104)"><g><path d="M 1.425781 -5.320312 C 1.855469 -5.320312 2.222656 -5.683594 2.222656 -6.117188 C 2.222656 -6.5625 1.855469 -6.914062 1.425781 -6.914062 C 0.992188 -6.914062 0.625 -6.5625 0.625 -6.117188 C 0.625 -5.683594 0.992188 -5.320312 1.425781 -5.320312 Z M 0.695312 0 L 2.140625 0 L 2.140625 -4.558594 L 0.695312 -4.558594 Z M 0.695312 0 "/></g></g></g><g fill="rgb(100%, 100%, 100%)" fill-opacity="1"><g transform="translate(20.350187, 116.429104)"><g><path d="M 3.90625 -7.804688 L 3.90625 -4.15625 C 3.566406 -4.464844 3.132812 -4.648438 2.609375 -4.648438 C 1.34375 -4.648438 0.351562 -3.601562 0.351562 -2.277344 C 0.351562 -0.957031 1.34375 0.0898438 2.609375 0.0898438 C 3.132812 0.0898438 3.566406 -0.0898438 3.90625 -0.398438 L 3.90625 0.0117188 L 5.355469 0 L 5.355469 -7.804688 Z M 2.894531 -1.195312 C 2.289062 -1.195312 1.8125 -1.675781 1.8125 -2.277344 C 1.8125 -2.882812 2.289062 -3.359375 2.894531 -3.359375 C 3.484375 -3.359375 3.976562 -2.882812 3.976562 -2.277344 C 3.976562 -1.675781 3.484375 -1.195312 2.894531 -1.195312 Z M 2.894531 -1.195312 "/></g></g></g><g fill="rgb(100%, 100%, 100%)" fill-opacity="1"><g transform="translate(26.985594, 116.429104)"><g><path d="M 4.726562 -6.847656 L 3.347656 -6.847656 L 2.347656 -5.148438 L 3.304688 -5.148438 Z M 5.308594 -2.289062 C 5.308594 -3.714844 4.328125 -4.660156 2.859375 -4.660156 C 1.390625 -4.660156 0.351562 -3.703125 0.351562 -2.277344 C 0.351562 -0.855469 1.378906 0.0898438 2.90625 0.0898438 C 4.167969 0.0898438 5.011719 -0.582031 5.238281 -1.570312 L 3.839844 -1.570312 C 3.714844 -1.207031 3.382812 -0.992188 2.882812 -0.992188 C 2.222656 -0.992188 1.878906 -1.390625 1.824219 -2.039062 L 5.308594 -2.039062 Z M 2.882812 -3.542969 C 3.371094 -3.542969 3.65625 -3.316406 3.804688 -2.917969 L 1.914062 -2.917969 C 2.0625 -3.304688 2.371094 -3.542969 2.882812 -3.542969 Z M 2.882812 -3.542969 "/></g></g></g><g fill="rgb(100%, 100%, 100%)" fill-opacity="1"><g transform="translate(33.2452, 116.429104)"><g><path d="M 0.671875 0 L 2.128906 0 L 2.128906 -7.804688 L 0.671875 -7.804688 Z M 0.671875 0 "/></g></g></g><g fill="rgb(100%, 100%, 100%)" fill-opacity="1"><g transform="translate(36.657736, 116.429104)"><g><path d="M 1.425781 -5.320312 C 1.855469 -5.320312 2.222656 -5.683594 2.222656 -6.117188 C 2.222656 -6.5625 1.855469 -6.914062 1.425781 -6.914062 C 0.992188 -6.914062 0.625 -6.5625 0.625 -6.117188 C 0.625 -5.683594 0.992188 -5.320312 1.425781 -5.320312 Z M 0.695312 0 L 2.140625 0 L 2.140625 -4.558594 L 0.695312 -4.558594 Z M 0.695312 0 "/></g></g></g><g fill="rgb(100%, 100%, 100%)" fill-opacity="1"><g transform="translate(40.115821, 116.429104)"><g><path d="M 3.417969 -3.429688 L 3.417969 -4.558594 L 2.335938 -4.558594 L 2.335938 -6.3125 L 0.886719 -6.3125 L 0.886719 -4.558594 L 0.125 -4.558594 L 0.125 -3.429688 L 0.886719 -3.429688 L 0.886719 -1.628906 C 0.886719 -0.660156 1.707031 0.0898438 2.675781 0.0898438 C 2.984375 0.0898438 3.292969 0.0234375 3.40625 -0.0585938 L 3.40625 -1.183594 L 2.859375 -1.183594 C 2.550781 -1.183594 2.335938 -1.425781 2.335938 -1.800781 L 2.335938 -3.429688 Z M 3.417969 -3.429688 "/></g></g></g><g fill="rgb(100%, 100%, 100%)" fill-opacity="1"><g transform="translate(44.371084, 116.429104)"><g><path d="M 4.726562 -6.847656 L 3.347656 -6.847656 L 2.347656 -5.148438 L 3.304688 -5.148438 Z M 5.308594 -2.289062 C 5.308594 -3.714844 4.328125 -4.660156 2.859375 -4.660156 C 1.390625 -4.660156 0.351562 -3.703125 0.351562 -2.277344 C 0.351562 -0.855469 1.378906 0.0898438 2.90625 0.0898438 C 4.167969 0.0898438 5.011719 -0.582031 5.238281 -1.570312 L 3.839844 -1.570312 C 3.714844 -1.207031 3.382812 -0.992188 2.882812 -0.992188 C 2.222656 -0.992188 1.878906 -1.390625 1.824219 -2.039062 L 5.308594 -2.039062 Z M 2.882812 -3.542969 C 3.371094 -3.542969 3.65625 -3.316406 3.804688 -2.917969 L 1.914062 -2.917969 C 2.0625 -3.304688 2.371094 -3.542969 2.882812 -3.542969 Z M 2.882812 -3.542969 "/></g></g></g><g fill="rgb(100%, 100%, 100%)" fill-opacity="1"><g transform="translate(50.630689, 116.429104)"><g><path d="M 1.539062 0.0898438 C 1.992188 0.0898438 2.382812 -0.285156 2.382812 -0.742188 C 2.382812 -1.195312 1.992188 -1.570312 1.539062 -1.570312 C 1.09375 -1.570312 0.71875 -1.195312 0.71875 -0.742188 C 0.71875 -0.285156 1.09375 0.0898438 1.539062 0.0898438 Z M 1.539062 0.0898438 "/></g></g></g><path stroke-linecap="round" transform="matrix(0.746361, 0, 0, 0.666184, 14.250112, 49.213024)" fill="none" stroke-linejoin="miter" d="M 0.502287 0.00273172 L 112.969869 0.00273172 " stroke="rgb(98.039246%, 63.529968%, 11.369324%)" stroke-width="1" stroke-opacity="1" stroke-miterlimit="4"/><path fill="rgb(98.039246%, 63.529968%, 11.369324%)" d="M 20.492188 128.261719 C 20.296875 128.261719 20.121094 128.304688 19.972656 128.386719 C 19.820312 128.46875 19.699219 128.59375 19.613281 128.761719 C 19.523438 128.933594 19.480469 129.105469 19.480469 129.285156 C 19.480469 129.378906 19.5 129.46875 19.53125 129.550781 C 19.566406 129.632812 19.621094 129.699219 19.699219 129.746094 C 19.777344 129.796875 19.863281 129.820312 19.960938 129.820312 C 20.042969 129.820312 20.125 129.804688 20.199219 129.777344 C 20.277344 129.75 20.347656 129.707031 20.410156 129.648438 C 20.472656 129.59375 20.527344 129.527344 20.570312 129.453125 C 20.613281 129.378906 20.648438 129.304688 20.671875 129.230469 C 20.699219 129.152344 20.722656 129.03125 20.75 128.863281 C 20.777344 128.6875 20.800781 128.503906 20.824219 128.3125 L 20.828125 128.308594 L 20.820312 128.304688 C 20.703125 128.277344 20.59375 128.261719 20.492188 128.261719 " fill-opacity="1" fill-rule="nonzero"/><g clip-path="url(#id6)"><path fill="rgb(98.039246%, 63.529968%, 11.369324%)" d="M 22.289062 129.269531 C 22.164062 129.519531 21.988281 129.726562 21.769531 129.886719 C 21.550781 130.042969 21.324219 130.125 21.105469 130.125 C 20.964844 130.125 20.847656 130.089844 20.761719 130.023438 C 20.675781 129.953125 20.632812 129.863281 20.632812 129.75 L 20.632812 129.734375 L 20.621094 129.746094 C 20.5625 129.8125 20.515625 129.863281 20.472656 129.898438 C 20.433594 129.933594 20.382812 129.972656 20.3125 130.007812 C 20.246094 130.042969 20.171875 130.074219 20.089844 130.09375 C 20.007812 130.113281 19.921875 130.125 19.839844 130.125 C 19.695312 130.125 19.558594 130.089844 19.4375 130.023438 C 19.316406 129.953125 19.226562 129.859375 19.167969 129.738281 C 19.109375 129.617188 19.082031 129.476562 19.082031 129.320312 C 19.082031 129.09375 19.140625 128.863281 19.261719 128.636719 C 19.378906 128.410156 19.550781 128.234375 19.765625 128.121094 C 19.980469 128.007812 20.246094 127.953125 20.558594 127.953125 C 20.640625 127.953125 20.730469 127.957031 20.824219 127.964844 C 20.90625 127.972656 21.035156 127.992188 21.207031 128.023438 C 21.246094 128.03125 21.273438 128.070312 21.265625 128.109375 L 21.238281 128.269531 C 21.230469 128.292969 21.214844 128.390625 21.1875 128.59375 L 21.070312 129.339844 C 21.058594 129.410156 21.050781 129.464844 21.046875 129.503906 C 21.046875 129.523438 21.042969 129.542969 21.042969 129.558594 C 21.042969 129.574219 21.042969 129.585938 21.042969 129.597656 C 21.042969 129.671875 21.0625 129.730469 21.101562 129.765625 C 21.140625 129.804688 21.191406 129.824219 21.253906 129.824219 C 21.378906 129.824219 21.519531 129.757812 21.664062 129.632812 C 21.808594 129.503906 21.929688 129.335938 22.015625 129.125 C 22.105469 128.917969 22.148438 128.691406 22.148438 128.460938 C 22.148438 128.257812 22.113281 128.066406 22.042969 127.890625 C 21.96875 127.710938 21.851562 127.558594 21.691406 127.4375 C 21.53125 127.3125 21.34375 127.222656 21.128906 127.171875 C 20.917969 127.117188 20.691406 127.089844 20.460938 127.089844 C 20.160156 127.089844 19.867188 127.136719 19.597656 127.222656 C 19.328125 127.3125 19.082031 127.460938 18.867188 127.667969 C 18.65625 127.871094 18.488281 128.125 18.371094 128.421875 C 18.25 128.71875 18.191406 129.03125 18.191406 129.351562 C 18.191406 129.585938 18.226562 129.808594 18.304688 130.015625 C 18.378906 130.226562 18.496094 130.402344 18.652344 130.542969 C 18.8125 130.683594 19.003906 130.789062 19.230469 130.851562 C 19.453125 130.914062 19.691406 130.945312 19.941406 130.945312 C 20.082031 130.945312 20.222656 130.9375 20.363281 130.917969 C 20.507812 130.902344 20.644531 130.867188 20.773438 130.824219 C 20.878906 130.785156 20.992188 130.730469 21.113281 130.65625 C 21.125 130.648438 21.140625 130.644531 21.152344 130.644531 C 21.160156 130.644531 21.167969 130.648438 21.175781 130.648438 C 21.199219 130.65625 21.214844 130.671875 21.222656 130.695312 C 21.234375 130.726562 21.246094 130.761719 21.257812 130.792969 C 21.273438 130.824219 21.261719 130.863281 21.230469 130.882812 C 21.054688 130.992188 20.867188 131.074219 20.664062 131.132812 C 20.4375 131.191406 20.183594 131.222656 19.910156 131.222656 C 19.609375 131.222656 19.320312 131.179688 19.050781 131.097656 C 18.78125 131.015625 18.554688 130.890625 18.375 130.726562 C 18.199219 130.5625 18.066406 130.363281 17.984375 130.136719 C 17.902344 129.90625 17.863281 129.652344 17.863281 129.378906 C 17.863281 129.019531 17.933594 128.660156 18.078125 128.316406 C 18.21875 127.972656 18.410156 127.6875 18.648438 127.460938 C 18.882812 127.238281 19.167969 127.074219 19.484375 126.96875 C 19.804688 126.863281 20.144531 126.8125 20.488281 126.8125 C 20.761719 126.8125 21.027344 126.847656 21.273438 126.914062 C 21.523438 126.980469 21.742188 127.089844 21.921875 127.234375 C 22.101562 127.378906 22.242188 127.5625 22.335938 127.777344 C 22.429688 127.992188 22.476562 128.222656 22.476562 128.464844 C 22.476562 128.746094 22.414062 129.019531 22.289062 129.269531 Z M 20.0625 125.539062 C 18.203125 125.539062 16.691406 127.050781 16.691406 128.914062 C 16.691406 130.777344 18.203125 132.285156 20.0625 132.285156 C 21.925781 132.285156 23.4375 130.777344 23.4375 128.914062 C 23.4375 127.050781 21.925781 125.539062 20.0625 125.539062 " fill-opacity="1" fill-rule="nonzero"/></g></svg>